<svg width="169" height="147" viewBox="0 0 169 147" fill="none" xmlns="http://www.w3.org/2000/svg">
<g clip-path="url(#clip0)">
<path d="M119.49 102.712C119.298 102.564 119.143 102.373 119.038 102.155C118.932 101.937 118.879 101.697 118.883 101.454C118.917 100.955 119.091 100.476 119.387 100.073L119.421 100.017L119.459 99.9655C119.768 99.574 120.001 99.129 120.149 98.6528C119.424 99.4119 118.788 100.252 118.255 101.157C117.88 101.81 117.445 102.715 117.462 103.489C117.458 103.664 117.493 103.837 117.566 103.997C117.993 103.77 118.404 103.513 118.794 103.226C119.024 103.058 119.253 102.886 119.483 102.708L119.49 102.712ZM138.037 106.743C137.985 106.843 137.926 106.94 137.868 107.037C137.75 107.224 137.646 107.421 137.557 107.624C137.823 107.403 137.997 107.09 138.043 106.746L138.037 106.743ZM139.565 99.6062C139.599 99.4542 139.644 99.3057 139.692 99.1641C139.814 98.7555 139.906 98.3388 139.968 97.917C139.871 98.0763 139.786 98.2426 139.713 98.4145V98.4145C139.544 98.7562 139.447 99.1288 139.427 99.5095L139.565 99.6062ZM72.4744 100.743C72.032 101.314 71.6764 101.947 71.4189 102.622C71.1155 103.422 70.9691 104.274 70.9878 105.13C70.9565 105.788 71.1802 106.433 71.6121 106.929C71.8028 107.121 72.0342 107.268 72.2892 107.358C72.5441 107.448 72.8161 107.48 73.0849 107.451C73.3781 107.429 73.6629 107.343 73.9188 107.198C74.1746 107.052 74.3952 106.852 74.5646 106.612C75.0465 106.045 75.2998 105.318 75.2751 104.574C75.2667 103.928 75.0857 103.297 74.7508 102.746C74.3804 102.149 73.8625 101.658 73.247 101.32V101.32C72.969 101.161 72.7118 100.968 72.4813 100.746L72.4744 100.743ZM130.317 103.192C130.317 103.278 130.317 103.361 130.317 103.447C130.317 103.793 130.317 104.138 130.355 104.466C130.372 104.715 130.404 104.964 130.438 105.213V105.244C130.461 105.453 130.494 105.66 130.538 105.866C130.592 106.1 130.662 106.331 130.748 106.556C131.26 105.996 131.85 105.513 132.501 105.123C132.057 104.922 131.644 104.658 131.276 104.339C130.89 104.026 130.567 103.643 130.324 103.209L130.317 103.192ZM47.4332 96.9222C48.2668 98.8706 49.2123 100.769 50.265 102.608C50.3271 102.44 50.3904 102.273 50.4547 102.107C50.7617 101.32 51.0894 100.539 51.4274 99.7617C51.7654 98.9844 52.1552 98.1554 52.5415 97.3643C51.7758 97.4426 51.0089 97.5002 50.2409 97.5371C49.2889 97.582 48.2266 97.4783 47.4401 96.9291L47.4332 96.9222ZM153.106 75.2288C153.106 67.989 151.682 60.8201 148.916 54.1315C146.149 47.4428 142.094 41.3654 136.982 36.2462C131.871 31.1271 125.802 27.0664 119.123 24.2962C112.444 21.526 105.286 20.1004 98.057 20.1008C83.458 20.1008 69.4569 25.9089 59.1339 36.2475C48.8108 46.586 43.0114 60.608 43.0114 75.2288C43.0039 81.7463 44.1531 88.2133 46.4054 94.328C46.6158 93.2122 47.5126 92.2174 48.2955 91.4747C48.9684 90.8318 49.7406 90.3022 50.5824 89.9064C51.419 89.5594 52.3123 89.3697 53.2175 89.3468C53.966 89.3122 54.7145 89.2984 55.463 89.2881C56.7737 89.2673 58.0912 89.2881 59.4019 89.3088H59.9642L60.4677 89.333C61.4534 89.3047 62.4399 89.3439 63.4202 89.4504C64.0666 89.5304 64.6835 89.7676 65.2173 90.1413L65.2794 90.1862L65.3346 90.238C65.6026 90.4719 65.8189 90.7592 65.9698 91.0816C66.1206 91.404 66.2027 91.7543 66.2106 92.1103C66.2166 92.6741 66.105 93.2329 65.883 93.7511C65.6805 94.2686 65.3563 94.7296 64.9379 95.0948C64.3515 95.6303 63.334 95.9342 62.4372 96.1311C62.3224 96.8648 62.1329 97.5848 61.8716 98.2797L61.8509 98.3454L61.8233 98.4076C61.7336 98.6114 61.6612 98.8704 61.5922 99.0984C61.4232 99.6269 61.2473 100.159 61.1024 100.691L60.8403 101.637L60.6643 102.297L60.4815 102.988C60.4264 103.202 60.3746 103.42 60.3125 103.634C60.2746 103.758 60.2435 103.886 60.2125 104.011C60.1815 104.135 60.1435 104.28 60.109 104.411C59.7641 105.793 59.3674 107.209 58.9087 108.574C58.6454 109.456 58.2808 110.304 57.8222 111.102V111.12C57.6002 111.441 57.3382 111.732 57.0427 111.987C62.1996 117.77 68.5195 122.395 75.5874 125.559C82.6554 128.724 90.3116 130.355 98.0536 130.347C105.559 130.355 112.986 128.822 119.876 125.842C126.766 122.863 132.973 118.5 138.112 113.023C137.286 113.184 136.449 113.282 135.608 113.317C134.229 113.379 132.746 113.244 131.511 112.591C130.939 112.321 130.45 111.903 130.096 111.379C129.742 110.855 129.535 110.245 129.496 109.613C129.055 109.927 128.586 110.201 128.096 110.432C127.255 110.829 126.345 111.057 125.416 111.102C124.52 111.167 123.627 110.939 122.87 110.453C122.031 109.857 121.435 108.977 121.191 107.976C120.791 108.339 120.38 108.691 119.963 109.012C119.046 109.776 118.047 110.436 116.986 110.981C116.095 111.443 115.118 111.716 114.116 111.783C112.497 111.917 110.886 111.447 109.591 110.463C108.622 109.713 107.954 108.639 107.708 107.437C107.505 107.998 107.164 108.497 106.714 108.888C106.21 109.392 105.651 109.839 105.049 110.221C104.379 110.637 103.662 110.971 102.913 111.216C102.206 111.464 101.468 111.613 100.72 111.658C99.17 111.782 97.6321 111.304 96.4256 110.322C95.845 109.827 95.3808 109.21 95.0659 108.515C94.7511 107.82 94.5935 107.064 94.6044 106.301C94.6185 105.465 94.7343 104.635 94.9493 103.827C95.2252 102.66 95.5667 101.496 95.9151 100.345L95.7599 100.245C95.707 100.206 95.6552 100.166 95.6046 100.124C95.5449 100.516 95.4667 100.905 95.3701 101.292C95.1489 102.254 94.78 103.176 94.2767 104.024C93.7593 104.853 93.0143 105.586 91.9761 105.634C91.7746 105.643 91.5729 105.619 91.3794 105.562L91.2828 105.53C91.2828 105.786 91.2449 106.038 91.2207 106.283V106.366L91.1621 106.625C91.1525 106.886 91.1295 107.145 91.0931 107.403C91.0576 107.897 90.9861 108.387 90.8793 108.871V108.902C90.7609 109.395 90.5412 109.859 90.2343 110.263C89.9632 110.609 89.6569 110.927 89.3202 111.209H89.2995C88.2845 112.108 87.0017 112.646 85.6503 112.74C85.1098 112.793 84.5646 112.715 84.0604 112.513C83.5562 112.311 83.1078 111.991 82.753 111.579C82.0631 110.715 81.8631 109.506 81.8424 108.442C81.8424 108.377 81.8424 108.308 81.8424 108.242C81.4843 108.732 81.0737 109.182 80.6179 109.582C79.3547 110.66 77.924 111.524 76.3823 112.139C74.8614 112.789 73.2392 113.171 71.5879 113.265C70.114 113.327 68.6387 113.177 67.2075 112.819C65.8822 112.53 64.6306 111.97 63.5306 111.175C62.0371 110.018 61.4094 108.339 61.3714 106.484C61.369 104.908 61.7819 103.359 62.5683 101.993C63.401 100.512 64.4881 99.1894 65.7795 98.0863C67.1006 96.9262 68.5905 95.9745 70.1979 95.2641C71.7904 94.5559 73.5002 94.1494 75.2406 94.0654C76.0455 94.0103 76.8538 94.0299 77.6551 94.1242C78.6312 94.2727 79.5832 94.7908 79.6073 95.9101C79.6093 96.0256 79.6024 96.1411 79.5866 96.2555C79.791 96.3167 79.9915 96.3906 80.1868 96.4766C80.9057 96.7974 81.5478 97.2685 82.07 97.8583C82.5996 98.4515 83.0127 99.1394 83.2876 99.886L83.3531 100.066C83.6463 99.0756 84.0272 98.1137 84.4914 97.1916C84.9275 96.3485 85.528 95.6014 86.2573 94.9947L86.2884 94.9705L86.3229 94.9463C87.0421 94.4264 87.8992 94.1319 88.7856 94.1C89.4815 94.0502 90.1736 94.239 90.7482 94.6354C90.8581 94.5446 90.9733 94.4604 91.0931 94.3832C91.5213 94.1074 92.0158 93.9523 92.5245 93.9342C93.0607 93.9016 93.5951 94.0214 94.0663 94.2796C94.7446 94.6841 95.2394 95.3369 95.446 96.1001C95.6371 95.8074 95.8566 95.5343 96.1013 95.2848C96.6917 94.6753 97.4088 94.2035 98.2019 93.9031C98.7431 92.4487 99.4429 91.0585 100.289 89.7579C100.726 89.1639 101.277 88.6635 101.91 88.2863C102.944 87.6429 104.12 87.2623 105.335 87.1775C106.045 87.1151 106.757 87.2808 107.366 87.6507C107.695 87.8673 107.964 88.1622 108.15 88.509C108.336 88.8557 108.433 89.2433 108.432 89.637C108.432 90.3278 108.039 91.2087 107.742 91.827C107.446 92.4453 107.201 93.0084 106.97 93.6198C107.255 93.6679 107.534 93.7491 107.801 93.8616H107.825C108.188 94.0323 108.495 94.3042 108.708 94.6449C108.921 94.9855 109.031 95.3804 109.025 95.7822C109.038 96.6452 108.781 97.4905 108.291 98.2003C107.809 98.919 107.13 99.4828 106.335 99.8238C105.846 100.02 105.336 100.156 104.814 100.228C104.745 100.466 104.686 100.705 104.624 100.943C104.49 101.779 104.404 102.636 104.317 103.479V103.523V103.568C104.264 103.869 104.239 104.175 104.241 104.48C104.227 104.738 104.294 104.994 104.431 105.213C104.676 105.479 105.393 105.482 105.711 105.468H105.887C106.211 105.431 106.54 105.485 106.836 105.625C107.131 105.765 107.382 105.985 107.56 106.259C107.604 105.165 107.856 104.09 108.305 103.092C108.826 101.856 109.508 100.695 110.333 99.6373C111.828 97.7438 113.661 96.1439 115.738 94.9187C117.776 93.6785 120.032 92.8011 122.439 92.6975C124.04 92.6284 125.716 92.7942 127.175 93.5024C128.538 94.1622 129.59 95.2468 129.61 96.8255C129.616 97.1534 129.58 97.4807 129.503 97.7996V97.7996C129.729 97.9502 129.923 98.145 130.071 98.3724C130.22 98.5998 130.321 98.855 130.369 99.1226C130.716 98.3078 131.18 97.5489 131.749 96.8704C132.985 95.3876 134.511 94.1733 136.233 93.302C137.961 92.3757 139.873 91.8426 141.831 91.7406C142.826 91.6892 143.82 91.8542 144.745 92.2243C145.628 92.5645 146.413 93.1174 147.032 93.834C147.66 94.5556 148.015 95.4748 148.036 96.4317C148.029 97.423 147.717 98.3881 147.142 99.1951C146.689 99.8741 146.129 100.475 145.483 100.974L145.559 101.005C145.876 101.152 146.179 101.328 146.463 101.53C150.84 93.458 153.124 84.4146 153.106 75.2288V75.2288Z" fill="#FF006D"/>
<path fill-rule="evenodd" clip-rule="evenodd" d="M120.984 79.2256C112.192 78.8559 101.365 79.6055 88.3924 82.5245C82.9741 83.7834 77.4684 84.6298 71.9225 85.0565C71.1396 82.7525 69.5391 77.4293 69.0321 74.88C68.7872 73.6433 68.6561 73.5293 69.9324 72.9559C75.1579 70.6069 99.2505 62.7414 121.042 71.5189C121.784 71.816 121.732 71.8436 121.732 72.6277C121.732 74.1511 121.453 77.4466 120.97 79.2256H120.984ZM115.634 67.9367C102.079 64.7872 87.9234 65.3975 74.6888 69.7019C73.1022 66.3926 72.433 64.7622 72.2157 63.9504C72.0743 63.415 72.1364 63.1386 72.8159 62.9141C93.1661 55.812 114.996 61.1558 115.769 61.3355C116.541 61.5151 116.479 61.7016 116.407 62.3925C116.334 63.0834 115.858 66.4894 115.648 67.9367H115.634ZM107.846 58.2645C97.8846 56.7895 88.0199 57.8258 80.8732 59.1592C80.5283 57.7429 79.6384 54.0848 79.5521 53.6323C79.4659 53.1797 82.5253 50.5613 92.1348 49.5492C101.744 48.5371 107.629 51.2418 107.973 51.4802C108.318 51.7185 108.032 56.6168 107.86 58.2715L107.846 58.2645ZM94.3423 26.4154C94.8665 30.8715 91.476 31.2515 93.6145 34.4882C93.4075 30.0667 97.5638 30.0079 94.3561 26.4223L94.3423 26.4154ZM150.602 86.8286C150.602 86.8286 142.024 80.6971 123.764 79.381C124.257 77.0286 125.171 71.702 124.74 71.0595C124.609 70.866 122.236 69.7364 118.159 68.5896C118.666 66.6035 119.071 64.5927 119.373 62.5652C119.511 61.4149 119.57 61.3251 118.535 60.9451C115.915 59.9884 113.223 59.2445 110.484 58.7205C110.805 56.8552 110.926 51.1209 110.543 50.8342C109.853 50.3333 107.556 50.1434 107.328 50.0985C107.101 50.0535 107.491 47.0621 106.794 46.1121C106.356 45.5111 103.472 45.3004 102.831 45.2589C99.5315 45.0224 96.2194 45.0294 92.9212 45.2796C92.7339 43.1873 92.6659 41.0859 92.7177 38.9858C92.7591 38.1118 92.766 37.6766 92.9971 37.4866C94.1388 36.5332 95.9599 35.1687 95.9599 35.1687C95.8392 35.2551 93.8697 35.6938 92.5314 36.4538C91.4381 37.0755 91.4967 37.9495 91.476 39.3761C91.4484 41.3451 91.5174 44.0637 91.4967 45.3971C84.3258 46.2296 80.4972 48.2884 80.5248 48.9965C80.5662 50.0984 80.718 50.5821 80.3903 50.7582C80.0626 50.9344 79.3797 51.2867 78.4208 51.8222C76.272 53.0243 76.8411 52.9621 76.9997 54.1953C77.1308 55.2109 78.2449 58.4787 78.6347 59.6048C75.5304 60.2612 73.0918 60.9313 71.6363 61.37C69.6978 61.9572 69.8151 62.1161 69.9979 63.0246C70.4014 65.004 72.3088 68.897 72.9987 70.2788C71.5201 70.7946 70.0255 71.3646 68.5147 71.9887C66.4694 72.8419 66.7039 72.7037 67.0212 74.7073C67.3075 76.5242 67.9836 79.7713 69.5943 85.2016C43.9772 86.2379 40.321 73.1666 40.321 73.1666C40.321 73.1666 45.9501 93.0188 83.2566 85.357C120.563 77.6953 134.291 80.6557 150.616 86.832L150.602 86.8286Z" fill="white"/>
<path fill-rule="evenodd" clip-rule="evenodd" d="M63.5548 79.3741C65.2027 79.5765 66.7218 80.3691 67.8318 81.6056C68.4069 79.9 69.5016 78.4181 70.9619 77.3683C72.4222 76.3186 74.1744 75.754 75.9719 75.7539C78.2497 75.7539 80.4342 76.6601 82.0449 78.2732C83.6555 79.8863 84.5604 82.074 84.5604 84.3553C84.5604 86.6365 83.6555 88.8242 82.0449 90.4373C80.4342 92.0504 78.2497 92.9566 75.9719 92.9566C74.5834 92.9572 73.2154 92.6202 71.9856 91.9746C70.7558 91.329 69.7008 90.394 68.9114 89.2501C68.3445 90.4154 67.4616 91.3975 66.3637 92.0841C65.2658 92.7707 63.9972 93.1341 62.7028 93.1327C60.8733 93.1327 59.1186 92.4049 57.8249 91.1092C56.5313 89.8136 55.8045 88.0563 55.8045 86.224C55.8024 85.077 56.087 83.9477 56.6323 82.939C55.5873 82.5711 54.6822 81.8873 54.0421 80.982C53.4019 80.0766 53.0584 78.9946 53.0589 77.8852C53.0589 76.4652 53.6222 75.1033 54.6248 74.0992C55.6274 73.0951 56.9872 72.531 58.4051 72.531C59.8231 72.531 61.1829 73.0951 62.1855 74.0992C63.1881 75.1033 63.7514 76.4652 63.7514 77.8852C63.7523 78.3876 63.6827 78.8877 63.5445 79.3706" fill="white"/>
<path d="M42.7182 102.228C44.2843 105.443 46.1116 108.523 48.1818 111.437C47.9127 111.382 47.6368 111.32 47.354 111.251C45.3857 108.427 43.642 105.453 42.1388 102.356L42.7182 102.228ZM40.5522 97.2746C40.9615 98.3339 41.3983 99.3783 41.8628 100.408L41.3041 100.57C40.8695 99.5982 40.4567 98.6137 40.0658 97.6166C40.2337 97.5083 40.3969 97.3944 40.5556 97.2746H40.5522ZM101.227 8.55991C69.7771 8.55991 43.4736 31.0132 37.4582 60.7725C37.3019 60.5951 37.1409 60.419 36.9753 60.2439C43.2011 30.4398 69.6426 7.98303 101.227 7.98303C137.423 7.98303 166.868 37.4728 166.868 73.7228C166.868 109.973 137.423 139.48 101.227 139.48C91.2375 139.48 81.3801 137.195 72.4073 132.797C63.4346 128.4 55.5838 122.007 49.4545 114.108C49.7511 114.165 50.0305 114.21 50.2927 114.242C56.3765 121.932 64.1179 128.145 72.9376 132.415C81.7573 136.686 91.427 138.904 101.223 138.903C137.095 138.903 166.289 109.672 166.289 73.7401C166.289 37.8079 137.105 8.55991 101.227 8.55991Z" fill="#FF006D"/>
<path d="M91.9244 11.5134C63.4375 11.5134 39.1725 29.9458 30.3839 55.5253L29.8562 55.2938C38.7379 29.514 63.203 10.9399 91.9416 10.9399C128.137 10.9399 157.583 40.4298 157.583 76.6798C157.583 112.93 128.12 142.416 91.9244 142.416C63.7169 142.416 39.614 124.502 30.346 99.4405H30.9565C40.1969 124.181 64.0377 141.843 91.9244 141.843C127.796 141.843 156.99 112.612 156.99 76.6798C156.99 40.7476 127.803 11.5168 91.9244 11.5168" fill="#FF006D"/>
<path d="M40.8522 102.646C41.8515 105.289 43.0221 107.863 44.3566 110.353H44.2669H44.2428H44.2186H44.0565H44.0324H43.6874L43.615 110.325H43.5667C42.3309 107.967 41.2401 105.535 40.3003 103.043H40.3348H40.359H40.3935H40.8522V102.646ZM39.3104 98.0587C39.591 99.0121 39.8933 99.9563 40.2176 100.891H39.952H39.9175H39.7278H39.6933H39.6657C39.3507 99.9816 39.0563 99.0605 38.7827 98.1278H38.9759H39.0069H39.2518H39.2828L39.3104 98.0587ZM101.72 14.4633C71.7121 14.4633 46.3985 34.9097 38.9103 62.6205L38.8034 62.4719L38.7689 62.427L38.6171 62.2232L38.5826 62.1783C46.2847 34.4468 71.719 14.035 101.827 14.0385C138.023 14.0385 167.469 43.5283 167.469 79.7783C167.469 116.028 137.912 145.352 101.717 145.352C90.2966 145.345 79.0758 142.356 69.1619 136.679C59.2479 131.002 50.9835 122.834 45.1844 112.982H45.2982H45.3224H45.3465H45.3844H45.5362H45.5604L45.6259 113.002H45.7397H45.7915H45.957C51.719 122.671 59.8837 130.681 69.6556 136.25C79.4274 141.82 90.4732 144.759 101.717 144.782C137.588 144.782 166.782 115.552 166.782 79.6194C166.782 43.6872 137.595 14.4564 101.717 14.4564L101.72 14.4633Z" fill="#FF006D"/>
<path d="M41.442 102.518C43.3846 105.664 45.5896 108.64 48.0334 111.413C47.723 111.346 47.4022 111.272 47.0711 111.189C44.7778 108.515 42.7016 105.662 40.8626 102.656L41.4558 102.518H41.442ZM37.3168 95.2261L37.5168 95.1536L37.3168 95.2261ZM36.9719 95.3332L37.1478 95.2779L36.9719 95.3332ZM38.9966 98.2211C39.4564 99.1054 39.9324 99.977 40.4245 100.836L39.8623 101.012C39.3794 100.172 38.9195 99.3195 38.4826 98.4559C38.6574 98.3753 38.831 98.2936 39.0035 98.2107L38.9966 98.2211ZM96.8153 3.18835C64.8655 3.18835 38.2205 26.374 32.7742 56.8275C32.5995 56.7193 32.4247 56.6134 32.2499 56.5097C37.8342 25.8938 64.6723 2.62184 96.8188 2.62184C133.015 2.60111 162.457 32.0944 162.457 68.3444C162.457 104.594 133.011 134.084 96.8153 134.084C88.047 134.087 79.3674 132.326 71.292 128.904C63.2166 125.483 55.9101 120.471 49.8063 114.166C50.1512 114.222 50.441 114.26 50.7238 114.28C56.7578 120.377 63.9387 125.215 71.8513 128.514C79.7639 131.814 88.2511 133.51 96.8222 133.504C132.694 133.504 161.888 104.273 161.888 68.3409C161.888 32.4087 132.697 3.17799 96.8222 3.17799L96.8153 3.18835Z" fill="#FF006D"/>
<path d="M101.665 5.4509C101.603 5.12594 101.477 4.81667 101.294 4.54125C101.111 4.26582 100.874 4.02979 100.599 3.84701C100.324 3.66424 100.015 3.53841 99.6901 3.4769C99.3656 3.41539 99.032 3.41944 98.709 3.48883C97.4742 3.69954 96.8016 4.99492 96.8016 4.99492C96.8016 4.99492 95.8392 3.89644 94.5872 3.98971C94.2557 3.99801 93.9293 4.0728 93.6272 4.20963C93.3251 4.34647 93.0535 4.54258 92.8284 4.78638C92.6033 5.03017 92.4293 5.3167 92.3167 5.62901C92.2041 5.94132 92.1551 6.27307 92.1728 6.60465C92.2486 7.85167 93.2524 8.8638 94.0491 9.5374C95.1342 10.4139 96.3284 11.1455 97.6018 11.7136C98.7019 10.8568 99.6863 9.86056 100.53 8.74981C101.141 7.90695 101.875 6.67719 101.651 5.45435" fill="#FF006D"/>
<path d="M124.061 137.062C124.319 137.004 124.563 136.895 124.778 136.741C124.994 136.588 125.176 136.393 125.316 136.167C125.455 135.942 125.548 135.692 125.59 135.43C125.631 135.168 125.62 134.901 125.557 134.644C125.357 133.659 124.305 133.148 124.305 133.148C124.305 133.148 125.161 132.347 125.057 131.348C125.041 131.084 124.972 130.825 124.854 130.588C124.737 130.351 124.573 130.139 124.373 129.966C124.173 129.792 123.941 129.661 123.689 129.578C123.438 129.496 123.172 129.465 122.908 129.486C121.912 129.576 121.129 130.409 120.608 131.062C119.933 131.953 119.376 132.928 118.952 133.963C119.665 134.825 120.485 135.59 121.394 136.24C122.084 136.709 123.081 137.276 124.061 137.058" fill="#FF006D"/>
<path d="M73.3815 5.17455C73.454 5.05253 73.5013 4.91723 73.5207 4.77661C73.5402 4.63599 73.5313 4.4929 73.4946 4.35577C73.458 4.21864 73.3943 4.09024 73.3074 3.97813C73.2204 3.86602 73.1119 3.77247 72.9883 3.703C72.829 3.62289 72.655 3.57634 72.477 3.56624C72.299 3.55614 72.1209 3.5827 71.9536 3.64428C71.9519 3.46472 71.9134 3.28741 71.8404 3.1234C71.7674 2.95938 71.6615 2.81215 71.5293 2.69087C71.4206 2.60026 71.2948 2.53232 71.1595 2.49102C71.0242 2.44973 70.882 2.43592 70.7413 2.4504C70.6006 2.46487 70.4642 2.50735 70.3401 2.57534C70.216 2.64333 70.1067 2.73546 70.0186 2.84632C69.6737 3.26775 69.7254 3.88262 69.7875 4.32133C69.8876 4.91051 70.0638 5.48415 70.3118 6.02778C70.9076 6.06593 71.5059 6.02645 72.0915 5.91033C72.5261 5.81361 73.1263 5.63053 73.385 5.1711" fill="#FF006D"/>
<path d="M95.653 145.007C95.7774 144.85 95.8693 144.67 95.9233 144.478C95.9774 144.285 95.9925 144.084 95.9677 143.885C95.943 143.687 95.8789 143.495 95.7793 143.322C95.6796 143.148 95.5464 142.997 95.3874 142.876C95.1794 142.732 94.944 142.632 94.696 142.584C94.4479 142.535 94.1925 142.538 93.9457 142.592C93.9777 142.341 93.9578 142.086 93.8872 141.843C93.8166 141.6 93.6968 141.374 93.5352 141.179C93.4006 141.032 93.238 140.913 93.0568 140.829C92.8757 140.745 92.6796 140.698 92.4802 140.691C92.2807 140.684 92.0818 140.717 91.8952 140.787C91.7085 140.858 91.5379 140.966 91.3932 141.103C90.8517 141.628 90.7827 142.485 90.7896 143.121C90.8147 143.965 90.9492 144.802 91.1897 145.611C92.0155 145.78 92.8595 145.84 93.7008 145.791C94.3285 145.739 95.177 145.598 95.653 145.01" fill="#FF006D"/>
<path d="M39.7795 68.417C39.7684 68.3161 39.7374 68.2185 39.6882 68.1298C39.639 68.0411 39.5726 67.9631 39.493 67.9004C39.4133 67.8376 39.322 67.7915 39.2243 67.7645C39.1267 67.7375 39.0246 67.7303 38.9241 67.7434C38.7978 67.766 38.6774 67.8146 38.5706 67.8859C38.4638 67.9572 38.3728 68.0498 38.3033 68.1579C38.2235 68.0592 38.1247 67.9777 38.0126 67.9183C37.9006 67.8589 37.7777 67.8229 37.6514 67.8124C37.5501 67.8078 37.449 67.8235 37.3538 67.8585C37.2587 67.8934 37.1715 67.9471 37.0973 68.0162C37.0231 68.0854 36.9634 68.1687 36.9217 68.2612C36.8801 68.3537 36.8573 68.4537 36.8546 68.5551C36.8922 68.9235 37.0731 69.2623 37.3582 69.4982C37.669 69.7932 38.0168 70.0463 38.3929 70.2512C38.7507 70.0157 39.0765 69.7347 39.3622 69.4153C39.6258 69.1564 39.777 68.8039 39.783 68.4342" fill="#FF006D"/>
<path d="M164.475 104.166C164.558 103.961 164.599 103.742 164.596 103.521C164.593 103.3 164.546 103.082 164.458 102.879C164.37 102.676 164.243 102.493 164.083 102.341C163.924 102.188 163.736 102.069 163.53 101.99C163.264 101.903 162.983 101.871 162.705 101.897C162.427 101.923 162.157 102.007 161.912 102.142C161.869 101.863 161.769 101.597 161.618 101.359C161.467 101.121 161.269 100.917 161.036 100.76C160.847 100.645 160.637 100.57 160.418 100.537C160.2 100.505 159.977 100.517 159.763 100.572C159.549 100.627 159.348 100.724 159.172 100.858C158.996 100.991 158.849 101.159 158.739 101.351C158.328 102.08 158.525 103.012 158.739 103.679C159.028 104.566 159.432 105.411 159.939 106.194C160.867 106.114 161.78 105.915 162.657 105.6C163.305 105.347 164.164 104.929 164.482 104.159" fill="#FF006D"/>
<path d="M156.455 27.9906C156.391 27.8969 156.309 27.8169 156.214 27.7553C156.118 27.6937 156.012 27.6517 155.9 27.6318C155.788 27.6119 155.674 27.6144 155.563 27.6392C155.452 27.6641 155.348 27.7107 155.255 27.7765C155.143 27.8658 155.051 27.9772 154.985 28.1039C154.918 28.2305 154.879 28.3696 154.869 28.5123C154.737 28.4542 154.595 28.4242 154.451 28.4242C154.308 28.4242 154.165 28.4542 154.034 28.5123C153.931 28.5607 153.839 28.6291 153.763 28.7136C153.687 28.7981 153.628 28.8969 153.591 29.0043C153.553 29.1118 153.537 29.2256 153.544 29.3392C153.551 29.4528 153.58 29.5639 153.63 29.666C153.86 30.0037 154.211 30.239 154.61 30.3223C155.072 30.4505 155.548 30.5178 156.028 30.5227C156.258 30.1016 156.434 29.6522 156.548 29.1858C156.675 28.7903 156.64 28.3607 156.452 27.9906" fill="#FF006D"/>
<path d="M33.4399 85.0565C33.3715 85.1992 33.332 85.354 33.324 85.5121C33.3159 85.6702 33.3394 85.8283 33.393 85.9772C33.4467 86.126 33.5294 86.2627 33.6363 86.3793C33.7432 86.4958 33.8723 86.5898 34.0159 86.6559C34.2018 86.7316 34.4012 86.7682 34.6017 86.7635C34.8023 86.7587 34.9997 86.7127 35.1818 86.6282C35.1984 86.8306 35.257 87.0273 35.3538 87.2057C35.4506 87.3841 35.5835 87.5404 35.744 87.6645C35.8735 87.7556 36.02 87.8198 36.1747 87.8533C36.3294 87.8868 36.4893 87.889 36.6448 87.8597C36.8004 87.8304 36.9485 87.7702 37.0805 87.6827C37.2125 87.5952 37.3257 87.4822 37.4134 87.3502C37.7411 86.8493 37.6445 86.1723 37.5307 85.6852C37.3644 85.0374 37.1152 84.4139 36.7891 83.8302C36.1212 83.8444 35.458 83.9454 34.8161 84.1307C34.3402 84.2793 33.709 84.5383 33.4365 85.0772" fill="#FF006D"/>
<path d="M147.494 38.3847C147.46 38.1122 147.319 37.8646 147.102 37.6962C146.885 37.5278 146.611 37.4524 146.339 37.4866C146.169 37.5177 146.008 37.5835 145.865 37.6798C145.722 37.7761 145.6 37.9008 145.508 38.0462C145.402 37.91 145.269 37.7971 145.118 37.7145C144.966 37.6319 144.8 37.5813 144.628 37.566C144.354 37.5577 144.088 37.6584 143.888 37.8462C143.688 38.034 143.571 38.2935 143.562 38.5678C143.562 39.0825 143.938 39.5281 144.252 39.8321C144.667 40.2253 145.13 40.5632 145.632 40.8373C146.11 40.5185 146.545 40.1388 146.925 39.7078C147.201 39.3623 147.543 38.8994 147.487 38.3882" fill="#FF006D"/>
<path d="M44.2635 121.776C44.2696 121.694 44.2591 121.611 44.2328 121.532C44.2065 121.454 44.1648 121.382 44.1102 121.32C44.0556 121.257 43.9892 121.207 43.9148 121.171C43.8404 121.135 43.7596 121.114 43.6771 121.11C43.5726 121.109 43.4691 121.13 43.373 121.171C43.2769 121.212 43.1902 121.272 43.1183 121.348C43.0708 121.255 43.0047 121.172 42.924 121.106C42.8433 121.039 42.7497 120.99 42.6492 120.961C42.5688 120.942 42.4853 120.939 42.4037 120.952C42.322 120.965 42.2439 120.995 42.1738 121.039C42.1038 121.083 42.0432 121.141 41.9957 121.209C41.9483 121.277 41.9148 121.353 41.8973 121.434C41.8717 121.736 41.9659 122.035 42.1595 122.267C42.3639 122.549 42.6039 122.803 42.8734 123.023C43.1952 122.888 43.4978 122.712 43.7737 122.498C44.0246 122.331 44.1994 122.072 44.26 121.776" fill="#FF006D"/>
<path d="M35.0197 101.413C34.9134 101.212 34.7687 101.034 34.5937 100.89C34.4188 100.745 34.2171 100.637 34.0002 100.57C33.7833 100.504 33.5555 100.481 33.3297 100.503C33.1039 100.525 32.8847 100.591 32.6846 100.698C31.9119 101.078 31.7188 102.08 31.7188 102.08C31.7188 102.08 30.8668 101.544 30.0597 101.852C29.6261 101.997 29.2681 102.31 29.0643 102.72C28.8606 103.13 28.8278 103.604 28.9732 104.038C29.2664 104.847 30.1287 105.316 30.7875 105.606C31.6715 105.971 32.599 106.22 33.5469 106.346C34.1051 105.564 34.5595 104.713 34.8989 103.814C35.1369 103.123 35.3818 102.183 34.9921 101.416" fill="#FF006D"/>
<path d="M24.0719 87.7682C24.0833 87.6618 24.0733 87.5542 24.0425 87.4517C24.0117 87.3492 23.9607 87.254 23.8925 87.1716C23.8244 87.0891 23.7404 87.0212 23.6457 86.9718C23.5509 86.9224 23.4472 86.8925 23.3407 86.8839C23.2056 86.8788 23.071 86.9016 22.9452 86.951C22.8194 87.0003 22.7051 87.0751 22.6094 87.1706C22.5519 87.0483 22.4698 86.9392 22.3684 86.85C22.2669 86.7609 22.1482 86.6936 22.0196 86.6525C21.9165 86.6245 21.8089 86.6175 21.7031 86.6319C21.5973 86.6463 21.4954 86.6817 21.4035 86.7361C21.3116 86.7905 21.2314 86.8628 21.1678 86.9487C21.1042 87.0346 21.0584 87.1323 21.0332 87.2362C20.9893 87.6231 21.0996 88.0116 21.3401 88.3175C21.5944 88.6899 21.8959 89.0278 22.2369 89.3227C22.6562 89.1604 23.0527 88.9444 23.4165 88.6802C23.7457 88.4729 23.98 88.144 24.0684 87.7648" fill="#FF006D"/>
<path d="M138.982 14.1663L139.934 14.2665L140.555 13.5376L140.755 14.4772L141.638 14.8433L140.806 15.32L140.73 16.2769L140.02 15.6344L139.089 15.8589L139.478 14.9815L138.982 14.1663Z" fill="#FF006D"/>
<path d="M115.986 144.081L117.366 144.157L118.211 143.062L118.563 144.402L119.863 144.869L118.704 145.618L118.663 147L117.593 146.126L116.265 146.513L116.765 145.224L115.986 144.081Z" fill="#FF006D"/>
<path d="M113.158 2.72894L112.319 2.21424L111.423 2.61149L111.654 1.65809L110.998 0.925767L111.975 0.849771L112.468 0L112.844 0.908495L113.803 1.1123L113.054 1.75136L113.158 2.72894Z" fill="#FF006D"/>
<path d="M73.3953 130.233L74.5611 131.939L76.6272 131.946L75.3648 133.583L75.996 135.549L74.0541 134.854L72.3778 136.064L72.4364 133.998L70.7739 132.778L72.7538 132.198L73.3953 130.233Z" fill="#FF006D"/>
<path d="M163.547 64.8624L165.475 64.89L166.589 63.3148L167.162 65.1594L169.003 65.7329L167.427 66.8452L167.451 68.7762L165.906 67.6224L164.078 68.2407L164.699 66.4134L163.547 64.8624Z" fill="#FF006D"/>
<path d="M123.843 13.1058L124.516 14.1007L125.713 14.1111L124.975 15.0575L125.337 16.2044L124.209 15.7933L123.233 16.4911L123.274 15.2924L122.308 14.5774L123.464 14.2458L123.843 13.1058Z" fill="#FF006D"/>
<path d="M66.6487 21.3721L66.659 22.5258L67.6145 23.1683L66.5245 23.538L66.2107 24.6468L65.5243 23.721L64.3723 23.7625L65.0379 22.8229L64.6447 21.7382L65.7416 22.0837L66.6487 21.3721Z" fill="#FF006D"/>
<path d="M85.2157 15.4894L84.4534 16.5602L84.9053 17.7969L83.6532 17.4031L82.6185 18.2149L82.6047 16.8988L81.5147 16.1664L82.7599 15.745L83.1186 14.4807L83.9016 15.5377L85.2157 15.4894Z" fill="#FF006D"/>
<path d="M23.5476 64.9073L24.1478 66.8349L26.0724 67.4359L24.4272 68.6035L24.4513 70.6243L22.8336 69.4153L20.9228 70.0647L21.5712 68.151L20.364 66.5309L22.3818 66.5551L23.5476 64.9073Z" fill="#FF006D"/>
<path d="M132.142 29.3101L133.022 29.5865L133.749 29.0131L133.76 29.9388L134.525 30.4535L133.649 30.7471L133.397 31.6384L132.846 30.8957L131.925 30.9302L132.459 30.1772L132.142 29.3101Z" fill="#FF006D"/>
<path d="M43.1149 27.5208C43.4997 27.6944 43.8 28.0137 43.95 28.4087C44.1001 28.8037 44.0875 29.2422 43.9151 29.628C43.7418 30.0134 43.423 30.3142 43.0285 30.4644C42.6341 30.6147 42.1963 30.6021 41.8111 30.4294C41.4263 30.2559 41.1259 29.9366 40.9759 29.5415C40.8259 29.1465 40.8385 28.708 41.0109 28.3222C41.1841 27.9369 41.503 27.6361 41.8974 27.4858C42.2918 27.3356 42.7297 27.3482 43.1149 27.5208Z" fill="#FF006D"/>
<path d="M87.3714 134.816C86.924 134.733 86.5278 134.475 86.2694 134.099C86.0109 133.724 85.9111 133.262 85.9917 132.813C86.0756 132.365 86.333 131.968 86.7077 131.709C87.0825 131.45 87.5442 131.35 87.9923 131.431C88.4397 131.515 88.8359 131.773 89.0944 132.148C89.3528 132.524 89.4526 132.986 89.372 133.435C89.2881 133.883 89.0308 134.28 88.656 134.538C88.2812 134.797 87.8195 134.897 87.3714 134.816" fill="#FF006D"/>
<path d="M55.6838 112.798C55.8563 112.725 56.0417 112.686 56.2292 112.685C56.4167 112.683 56.6027 112.718 56.7767 112.788C56.9506 112.859 57.109 112.962 57.2428 113.094C57.3766 113.225 57.4833 113.382 57.5567 113.555C57.63 113.728 57.6687 113.913 57.6705 114.101C57.6722 114.289 57.637 114.475 57.5669 114.65C57.4967 114.824 57.393 114.982 57.2617 115.116C57.1303 115.25 56.9739 115.357 56.8013 115.431C56.6287 115.504 56.4434 115.543 56.2559 115.545C56.0683 115.546 55.8823 115.511 55.7084 115.441C55.5345 115.371 55.3761 115.267 55.2422 115.135C55.1084 115.004 55.0018 114.847 54.9284 114.674C54.855 114.501 54.8163 114.316 54.8146 114.128C54.8128 113.94 54.848 113.754 54.9182 113.58C54.9883 113.405 55.092 113.247 55.2234 113.113C55.3547 112.979 55.5112 112.872 55.6838 112.798" fill="#FF006D"/>
<path d="M55.2491 16.9471C55.1987 17.2112 55.0967 17.4628 54.949 17.6875C54.8014 17.9121 54.6109 18.1054 54.3885 18.2562C54.1662 18.407 53.9163 18.5124 53.6532 18.5663C53.3902 18.6203 53.119 18.6218 52.8554 18.5706C52.3231 18.4678 51.8534 18.1575 51.5495 17.708C51.2455 17.2585 51.1321 16.7065 51.2343 16.1733C51.337 15.6403 51.6468 15.1698 52.0957 14.8654C52.5445 14.561 53.0956 14.4475 53.628 14.5498C54.1603 14.6526 54.63 14.9629 54.9339 15.4124C55.2379 15.862 55.3513 16.4139 55.2491 16.9471" fill="#FF006D"/>
<path d="M111.029 20.239C111.017 20.3139 110.991 20.3857 110.951 20.4502C110.911 20.5147 110.859 20.5707 110.797 20.615C110.736 20.6593 110.666 20.6909 110.592 20.7082C110.518 20.7255 110.442 20.7281 110.367 20.7157C110.292 20.7036 110.221 20.6768 110.156 20.6368C110.092 20.5969 110.036 20.5446 109.992 20.483C109.948 20.4214 109.916 20.3517 109.899 20.2778C109.881 20.2039 109.879 20.1274 109.891 20.0525C109.903 19.9776 109.93 19.9059 109.97 19.8413C110.01 19.7768 110.062 19.7208 110.124 19.6766C110.185 19.6323 110.255 19.6006 110.329 19.5833C110.402 19.566 110.479 19.5635 110.553 19.5758C110.628 19.588 110.7 19.6148 110.764 19.6547C110.829 19.6946 110.885 19.7469 110.929 19.8085C110.973 19.8701 111.005 19.9399 111.022 20.0137C111.039 20.0876 111.042 20.1642 111.029 20.239" fill="#FF006D"/>
<path d="M151.847 122.481C151.667 122.411 151.523 122.272 151.445 122.095C151.368 121.918 151.363 121.718 151.433 121.538C151.503 121.358 151.642 121.213 151.818 121.136C151.995 121.058 152.195 121.054 152.375 121.123C152.555 121.194 152.699 121.332 152.777 121.509C152.854 121.686 152.859 121.886 152.789 122.066C152.719 122.246 152.58 122.391 152.404 122.469C152.227 122.547 152.027 122.551 151.847 122.481" fill="#FF006D"/>
<path d="M44.6739 100.066C44.6926 99.9821 44.7277 99.903 44.7771 99.833C44.8265 99.763 44.8892 99.7035 44.9617 99.6579C45.0342 99.6123 45.1149 99.5815 45.1993 99.5673C45.2837 99.5531 45.3701 99.5558 45.4535 99.5752C45.537 99.594 45.6159 99.6291 45.6858 99.6785C45.7557 99.728 45.8152 99.7908 45.8607 99.8634C45.9062 99.936 45.937 100.017 45.9511 100.101C45.9653 100.186 45.9626 100.272 45.9433 100.356C45.9245 100.44 45.8895 100.519 45.8401 100.589C45.7907 100.659 45.728 100.718 45.6555 100.764C45.583 100.809 45.5023 100.84 45.4179 100.854C45.3335 100.868 45.2471 100.866 45.1637 100.846C45.0802 100.828 45.0012 100.793 44.9313 100.743C44.8614 100.694 44.802 100.631 44.7565 100.558C44.711 100.486 44.6802 100.405 44.6661 100.32C44.6519 100.236 44.6546 100.149 44.6739 100.066" fill="#FF006D"/>
<path d="M104.11 132.447C104.005 132.439 103.901 132.411 103.806 132.364C103.712 132.316 103.627 132.251 103.557 132.17C103.488 132.09 103.435 131.997 103.401 131.896C103.368 131.796 103.354 131.689 103.362 131.583C103.369 131.477 103.398 131.374 103.445 131.279C103.492 131.184 103.558 131.099 103.638 131.03C103.718 130.96 103.811 130.907 103.912 130.873C104.012 130.84 104.118 130.826 104.224 130.834C104.33 130.841 104.433 130.869 104.528 130.917C104.623 130.964 104.708 131.03 104.777 131.11C104.847 131.19 104.9 131.284 104.933 131.384C104.967 131.485 104.98 131.591 104.973 131.697C104.965 131.803 104.937 131.907 104.89 132.002C104.842 132.097 104.777 132.181 104.697 132.251C104.617 132.321 104.524 132.374 104.423 132.407C104.322 132.441 104.216 132.454 104.11 132.447Z" fill="#FF006D"/>
<path d="M135.777 126.329C135.859 126.178 135.997 126.066 136.161 126.017C136.326 125.968 136.502 125.986 136.654 126.067C136.804 126.149 136.916 126.287 136.965 126.451C137.014 126.616 136.997 126.793 136.916 126.944C136.833 127.094 136.695 127.206 136.531 127.254C136.367 127.303 136.19 127.284 136.04 127.203C135.965 127.163 135.898 127.108 135.845 127.042C135.791 126.976 135.751 126.9 135.726 126.819C135.702 126.737 135.694 126.652 135.703 126.567C135.712 126.483 135.737 126.4 135.777 126.326" fill="#FF006D"/>
<path d="M158.683 78.1133L160.825 78.7351L162.553 77.3223L162.622 79.5538L164.499 80.7628L162.398 81.5193L161.833 83.6782L160.467 81.9131L158.239 82.0409L159.494 80.1928L158.683 78.1133Z" fill="#FF006D"/>
<path d="M38.7482 40.1085L38.2377 43.2105L40.5004 45.3971L37.3927 45.8669L36.0164 48.6995L34.6092 45.8842L31.498 45.449L33.7365 43.2382L33.1881 40.1396L35.975 41.587L38.7482 40.1085Z" fill="#FF006D"/>
<path d="M150.878 107.244C150.96 107.093 151.098 106.981 151.262 106.932C151.426 106.882 151.603 106.9 151.754 106.981C151.905 107.063 152.017 107.201 152.066 107.366C152.115 107.53 152.097 107.707 152.016 107.859C151.934 108.009 151.796 108.12 151.631 108.169C151.467 108.217 151.291 108.199 151.14 108.118C151.065 108.078 150.999 108.023 150.945 107.957C150.891 107.891 150.851 107.815 150.827 107.734C150.803 107.652 150.795 107.567 150.803 107.482C150.812 107.397 150.837 107.315 150.878 107.24" fill="#FF006D"/>
<path d="M51.3929 43.7183C51.3515 43.9665 51.2135 44.188 51.0092 44.3344C50.8048 44.4808 50.5508 44.54 50.303 44.499C50.0552 44.4575 49.834 44.3193 49.6878 44.1147C49.5417 43.91 49.4826 43.6557 49.5235 43.4074C49.5436 43.2843 49.5877 43.1662 49.6534 43.0601C49.719 42.9541 49.805 42.862 49.9062 42.7891C50.0074 42.7163 50.122 42.6642 50.2433 42.6357C50.3647 42.6073 50.4904 42.603 50.6134 42.6233C50.7364 42.6434 50.8542 42.6876 50.9602 42.7534C51.0661 42.8192 51.1581 42.9052 51.2308 43.0066C51.3035 43.108 51.3555 43.2227 51.3839 43.3442C51.4124 43.4657 51.4166 43.5917 51.3964 43.7149" fill="#FF006D"/>
<path d="M155.558 55.2351C155.943 55.4086 156.244 55.7279 156.394 56.1229C156.544 56.518 156.531 56.9565 156.359 57.3422C156.185 57.7276 155.867 58.0284 155.472 58.1786C155.078 58.3289 154.64 58.3163 154.255 58.1436C153.87 57.9701 153.57 57.6508 153.42 57.2558C153.269 56.8607 153.282 56.4222 153.454 56.0365C153.628 55.6511 153.947 55.3503 154.341 55.2001C154.735 55.0498 155.173 55.0624 155.558 55.2351Z" fill="#FF006D"/>
<path fill-rule="evenodd" clip-rule="evenodd" d="M33.7089 59.0384C39.783 63.9055 41.8697 71.7055 42.3699 79.6298C42.87 87.554 43.4288 95.575 33.4503 95.8652C19.0292 96.259 14.3245 93.6717 14.3245 93.6717C10.6727 92.1375 7.557 89.5534 5.37138 86.2461C3.18576 82.9388 2.02832 79.0568 2.04537 75.0907C2.04537 58.9416 20.84 48.7478 33.7055 59.0591L33.7089 59.0384ZM13.4174 96.9844C5.24967 93.4783 0 85.2673 0 76.2652C0.00100152 71.2236 1.68353 66.3269 4.78049 62.3523C7.87745 58.3776 12.2113 55.5529 17.0942 54.3266C20.1796 53.5495 23.4045 53.5121 26.5071 54.2173C29.6097 54.9225 32.5025 56.3506 34.9506 58.3855C41.649 63.833 43.8496 72.4171 44.3704 80.7697C44.6567 85.3709 45.2016 91.5024 42.3733 95.4265C40.2659 98.3524 36.9236 99.3127 33.502 99.4094C28.4834 99.5476 23.0268 99.4094 18.0876 98.4214C16.7182 98.1278 14.7039 97.6511 13.4208 96.9637L13.4174 96.9844Z" fill="#231F20"/>
<path fill-rule="evenodd" clip-rule="evenodd" d="M33.7089 59.0384C39.783 63.9056 41.8697 71.7055 42.3698 79.6298C42.87 87.554 43.4287 95.575 33.4502 95.8652C19.0292 96.259 14.3245 93.6717 14.3245 93.6717C10.6726 92.1375 7.55698 89.5534 5.37137 86.2461C3.18575 82.9388 2.0283 79.0568 2.04535 75.0907C2.04535 58.9417 20.84 48.7479 33.7055 59.0591" fill="#FF006D"/>
<path fill-rule="evenodd" clip-rule="evenodd" d="M36.4546 87.4056C37.319 87.4056 38.1481 87.7495 38.7594 88.3617C39.3706 88.9739 39.7141 89.8042 39.7141 90.6699C39.7141 90.701 39.7141 90.7321 39.7141 90.7632C39.2169 90.6203 38.7324 90.4366 38.2654 90.214C38.0687 90.1187 37.8825 90.0029 37.7101 89.8685C37.5745 89.6662 37.3912 89.5004 37.1764 89.3859C36.9617 89.2714 36.722 89.2118 36.4787 89.2122C36.0853 89.2122 35.7081 89.3687 35.43 89.6472C35.1518 89.9258 34.9955 90.3036 34.9955 90.6976C34.9955 91.5162 35.6681 92.0793 36.4787 92.1829C37.2893 92.2866 37.6825 91.8133 38.4999 92.0793C38.7529 92.1622 39.0047 92.2486 39.2553 92.3384C38.9661 92.824 38.556 93.2261 38.065 93.5053C37.5741 93.7844 37.0191 93.9311 36.4546 93.9308C35.5901 93.9308 34.761 93.5869 34.1498 92.9747C33.5385 92.3625 33.1951 91.5322 33.1951 90.6665C33.1951 89.8007 33.5385 88.9704 34.1498 88.3582C34.761 87.746 35.5901 87.4021 36.4546 87.4021" fill="white"/>
<path d="M32.2707 67.695C32.381 69.6847 32.3914 71.8402 32.2396 72.4033C31.9775 73.3601 33.6883 73.9197 35.5991 70.9524C37.51 67.9851 38.1446 64.289 36.8822 63.2699C36.3511 62.8416 34.6161 62.7794 33.3399 63.0903C31.1566 63.6223 32.1672 65.7847 32.2707 67.695V67.695ZM26.1897 87.0393C25.6555 87.6094 25.0544 88.1128 24.3996 88.5385C23.6803 89.033 22.9088 89.4466 22.099 89.7717C21.3738 90.0653 20.6149 90.2672 19.8398 90.3728C18.0932 90.6071 16.3163 90.4321 14.6488 89.8615C13.0527 89.3146 11.6214 88.3709 10.489 87.1188C9.35005 85.8617 8.54576 84.3375 8.15048 82.6869C7.77748 81.0603 7.67146 79.3837 7.83659 77.723C7.97495 75.9228 8.36389 74.1508 8.99208 72.4585C9.19558 71.9646 9.44392 71.4222 9.7509 70.8384C10.033 70.2875 10.3668 69.7647 10.7477 69.2771C11.1274 68.8061 11.5352 68.3585 11.9687 67.9368C12.8834 67.0625 13.8908 66.291 14.973 65.6362C16.0962 64.9411 17.2836 64.3557 18.5187 63.8883C19.6636 63.4421 20.8574 63.1337 22.0749 62.9694C22.6458 62.8649 23.2316 62.8731 23.7995 62.9936C23.9649 63.0435 24.1137 63.1373 24.2303 63.265C24.3468 63.3927 24.4268 63.5496 24.4617 63.719C24.4956 63.9152 24.4877 64.1164 24.4383 64.3093C24.389 64.5023 24.2994 64.6825 24.1754 64.8382C23.8788 65.2458 23.1165 65.7018 21.8989 66.22C20.5334 66.721 19.2536 67.4306 18.1048 68.3237C17.2031 69.0478 16.4826 69.9727 16.0008 71.025C15.4149 72.3893 15.0583 73.8413 14.9454 75.3222C14.796 76.8042 14.8939 78.3008 15.2351 79.7507C15.6184 81.4369 16.495 82.9703 17.753 84.155C18.9924 85.3064 20.2974 85.7935 21.6679 85.6161C22.5378 85.4956 23.3507 85.1138 23.9995 84.5211C22.4405 82.1031 20.0398 82.4934 19.2707 81.3915C18.3946 80.1341 20.3917 78.3896 23.1786 79.3189C24.2744 79.7069 25.3127 80.2414 26.2656 80.9079C26.3277 80.1686 26.3553 79.7679 26.3553 79.7127C26.387 78.8675 26.2869 78.0225 26.0587 77.2083C25.8838 76.4762 25.6365 75.7634 25.3205 75.0804C25.0212 74.4584 24.6619 73.8672 24.2478 73.3152C23.7465 72.6834 23.1926 72.0952 22.5922 71.5569C21.9024 70.9559 21.5299 70.4792 21.4402 70.1199C21.2287 69.2655 21.6828 68.3513 22.8026 67.3772C23.6753 66.6241 24.4858 66.2027 25.2171 66.1094C26.3875 65.9643 27.4292 66.3858 28.342 67.3737C29.2549 68.3617 29.9448 69.7964 30.4116 71.6778C30.9807 73.9622 31.0325 76.3451 30.5633 78.6522C30.2195 80.0607 29.7651 81.4398 29.2043 82.7767C30.315 84.0202 32.1775 84.4658 33.9228 84.2448C35.2266 90.0826 29.5906 90.6284 26.1897 87.0255V87.0393Z" fill="white"/>
<path fill-rule="evenodd" clip-rule="evenodd" d="M36.4787 89.2191C36.722 89.2186 36.9616 89.2783 37.1764 89.3928C37.3912 89.5073 37.5745 89.673 37.71 89.8754C37.8825 90.0098 38.0686 90.1256 38.2653 90.2208C38.773 90.4615 39.3003 90.658 39.8416 90.8081C42.0801 91.4644 48.6336 94.6597 47.5609 98.9154C46.4882 103.171 39.1 101.655 37.8825 104.339C36.5649 107.24 40.1348 109.006 45.4707 110.719C50.8066 112.432 54.3627 111.773 54.3627 111.773C54.3627 111.773 55.0319 115.334 49.0406 114.014C43.0494 112.695 34.6747 109.462 35.3335 104.847C35.9923 100.232 44.6843 100.957 45.6811 98.3178C46.5537 95.993 42.7631 93.461 38.5171 92.0793C37.6997 91.8133 37.2616 92.29 36.4959 92.1829C35.7302 92.0758 35.0128 91.5197 35.0128 90.6975C35.0128 90.3036 35.169 89.9258 35.4472 89.6472C35.7253 89.3686 36.1025 89.2122 36.4959 89.2122" fill="#231F20"/>
<path fill-rule="evenodd" clip-rule="evenodd" d="M119.49 102.712C119.298 102.564 119.143 102.373 119.038 102.155C118.932 101.937 118.879 101.697 118.883 101.454C118.917 100.955 119.091 100.476 119.387 100.073L119.421 100.017L119.459 99.9655C119.768 99.574 120.001 99.1291 120.149 98.6529C119.424 99.412 118.788 100.252 118.255 101.157C117.88 101.81 117.445 102.715 117.462 103.489C117.458 103.664 117.494 103.837 117.566 103.997C117.993 103.77 118.404 103.513 118.794 103.226C119.024 103.058 119.253 102.886 119.483 102.708L119.49 102.712ZM52.5415 97.3644C51.7758 97.4427 51.0089 97.5003 50.2409 97.5371C48.9613 97.5924 47.5057 97.3886 46.7538 96.2176C46.4933 95.8038 46.3547 95.3249 46.3537 94.8358C46.3295 93.5093 47.3884 92.3176 48.2887 91.4575C48.9615 90.8146 49.7338 90.285 50.5755 89.8892C51.4121 89.5422 52.3054 89.3525 53.2107 89.3296C53.9591 89.295 54.7076 89.2812 55.4561 89.2709C56.7668 89.2501 58.0844 89.2709 59.3951 89.2916H59.9573L60.4609 89.3158C61.4466 89.2875 62.433 89.3267 63.4134 89.4332C64.0597 89.5132 64.6766 89.7504 65.2104 90.1241L65.2725 90.169L65.3277 90.2208C65.5957 90.4547 65.812 90.742 65.9629 91.0644C66.1137 91.3868 66.1958 91.7371 66.2038 92.0931C66.2097 92.6569 66.0981 93.2157 65.8761 93.7339C65.6736 94.2514 65.3494 94.7124 64.931 95.0776C64.3446 95.613 63.3271 95.917 62.4303 96.1139C62.3155 96.8476 62.126 97.5675 61.8647 98.2625L61.844 98.3282L61.8164 98.3903C61.7267 98.5941 61.6543 98.8532 61.5853 99.0812C61.4163 99.6097 61.2404 100.142 61.0955 100.674L60.8334 101.62L60.6575 102.28L60.4747 102.971C60.4195 103.185 60.3677 103.403 60.3056 103.617C60.2677 103.741 60.2367 103.869 60.2056 103.993C60.1746 104.118 60.1366 104.263 60.1021 104.394C59.7572 105.776 59.3606 107.192 58.9018 108.556C58.6385 109.439 58.2739 110.287 57.8153 111.085V111.102C57.4007 111.687 56.8685 112.179 56.2528 112.546H56.2287C54.9594 113.299 53.2831 114.163 51.7827 114.229C50.8364 114.287 49.9029 113.986 49.1682 113.386C48.7928 113.084 48.4891 112.702 48.2792 112.269C48.0692 111.835 47.9581 111.36 47.9541 110.878C47.9196 109.078 48.9682 106.173 49.5752 104.48C49.865 103.675 50.1409 102.86 50.4513 102.062C50.7617 101.264 51.086 100.494 51.424 99.7168C51.762 98.9396 52.1621 98.1589 52.5484 97.3678L52.5415 97.3644ZM138.037 106.743C137.985 106.843 137.926 106.94 137.868 107.037C137.75 107.224 137.646 107.421 137.557 107.624V107.624C137.823 107.403 137.997 107.09 138.044 106.746L138.037 106.743ZM139.565 99.6063C139.599 99.4543 139.644 99.3057 139.692 99.1641C139.814 98.7556 139.906 98.3389 139.968 97.9171C139.871 98.0764 139.786 98.2427 139.713 98.4145V98.4145C139.544 98.7563 139.447 99.1289 139.427 99.5095L139.565 99.6063ZM72.4744 100.743C72.032 101.314 71.6764 101.947 71.4189 102.622C71.1155 103.422 70.9691 104.274 70.9878 105.13C70.9565 105.788 71.1802 106.433 71.6121 106.929C71.8029 107.121 72.0343 107.268 72.2892 107.358C72.5441 107.449 72.8161 107.48 73.0849 107.451C73.3781 107.429 73.6629 107.343 73.9188 107.198C74.1746 107.053 74.3952 106.852 74.5646 106.612C75.0465 106.045 75.2998 105.318 75.2751 104.574C75.2667 103.929 75.0857 103.297 74.7509 102.746C74.3805 102.149 73.8625 101.658 73.247 101.32C72.969 101.161 72.7118 100.968 72.4813 100.746L72.4744 100.743ZM130.317 103.192C130.317 103.278 130.317 103.361 130.317 103.448C130.317 103.793 130.317 104.138 130.355 104.467C130.372 104.715 130.404 104.964 130.438 105.213V105.244C130.461 105.453 130.494 105.66 130.538 105.866C130.592 106.1 130.662 106.331 130.748 106.556C131.26 105.996 131.85 105.513 132.501 105.123C132.057 104.922 131.644 104.658 131.276 104.339C130.89 104.026 130.567 103.643 130.324 103.209L130.317 103.192ZM135.802 109.354C136.578 109.275 137.299 108.915 137.83 108.342C138.104 108.098 138.324 107.799 138.477 107.465C138.63 107.131 138.713 106.769 138.72 106.401C138.724 106.185 138.674 105.971 138.574 105.779C138.475 105.587 138.329 105.423 138.15 105.302C137.747 104.985 136.86 104.698 135.481 104.439C133.446 104.035 132.118 103.548 131.493 102.96C131.222 102.761 131 102.501 130.845 102.202C130.69 101.902 130.606 101.571 130.6 101.233C130.577 100.006 131.085 98.7519 132.125 97.4715C133.232 96.1422 134.598 95.0527 136.14 94.2693C137.676 93.4475 139.374 92.9757 141.113 92.8876C141.9 92.8457 142.686 92.9753 143.417 93.2675C144.083 93.5184 144.676 93.9316 145.142 94.4697C145.558 94.9381 145.794 95.5392 145.808 96.1657C145.792 96.8582 145.566 97.5295 145.159 98.0898C144.709 98.7637 144.132 99.3424 143.459 99.7928C142.886 100.217 142.206 100.473 141.496 100.532C141.179 100.553 140.862 100.501 140.568 100.38C140.471 100.357 140.383 100.308 140.312 100.238C140.242 100.168 140.192 100.08 140.168 99.9828C140.181 99.7532 140.23 99.527 140.313 99.3126C140.559 98.5299 140.688 97.7151 140.696 96.8946C140.675 96.1963 140.403 95.5289 139.93 95.0154C139.491 95.2675 139.088 95.5765 138.73 95.9343C138.263 96.409 137.891 96.9682 137.633 97.582C137.368 98.1281 137.228 98.7263 137.223 99.3334C137.217 99.4996 137.245 99.6652 137.304 99.8206C137.363 99.976 137.453 100.118 137.568 100.238C137.862 100.503 138.217 100.688 138.602 100.777C139.319 100.968 140.047 101.114 140.782 101.213C141.957 101.359 143.114 101.631 144.231 102.024C144.482 102.15 144.722 102.295 144.949 102.46C145.191 102.665 145.384 102.921 145.514 103.21C145.645 103.5 145.71 103.814 145.704 104.131C145.69 104.954 145.418 105.75 144.925 106.408C144.228 107.351 143.385 108.177 142.427 108.854C141.338 109.714 140.121 110.397 138.82 110.878C137.531 111.325 136.182 111.575 134.819 111.62C133.411 111.683 132.294 111.496 131.476 111.061C131.11 110.902 130.797 110.642 130.576 110.309C130.354 109.977 130.233 109.588 130.228 109.189C130.254 108.516 130.528 107.878 130.997 107.396C131.543 106.758 132.208 106.235 132.956 105.855C133.671 105.464 134.464 105.236 135.277 105.189C135.85 105.164 136.14 105.261 136.143 105.472C136.11 105.666 136.031 105.85 135.912 106.007C135.486 106.629 135.247 107.361 135.222 108.114C135.232 108.351 135.289 108.583 135.39 108.797C135.491 109.011 135.633 109.203 135.808 109.361L135.802 109.354ZM121.66 104.622V104.688L121.581 104.625C120.579 105.697 119.508 106.702 118.376 107.634C117.546 108.33 116.641 108.932 115.679 109.43C114.968 109.804 114.189 110.027 113.389 110.087C112.117 110.199 110.849 109.829 109.836 109.05C109.381 108.7 109.013 108.248 108.761 107.731C108.509 107.213 108.38 106.645 108.384 106.069C108.41 105.128 108.625 104.201 109.015 103.344C109.491 102.228 110.107 101.176 110.847 100.214C112.222 98.4702 113.904 96.9928 115.81 95.8548C117.88 94.5952 119.877 93.9239 121.801 93.841C123.429 93.7696 124.772 93.9895 125.83 94.5007C126.889 95.0189 127.43 95.7029 127.448 96.5561C127.421 97.2962 127.16 98.0086 126.703 98.5907C127.392 98.5596 127.824 98.5907 128.003 98.7185C128.182 98.8463 128.279 99.1123 128.286 99.5648C128.286 99.5199 128.258 99.741 128.206 100.225C128.155 101.285 128.141 102.276 128.158 103.199C128.158 103.679 128.182 104.049 128.2 104.294C128.217 104.539 128.248 104.822 128.293 105.14C128.337 105.458 128.375 105.717 128.417 105.907C128.534 106.416 128.71 106.91 128.941 107.379C128.293 107.975 127.563 108.474 126.772 108.86C126.105 109.181 125.382 109.364 124.643 109.399C122.682 109.487 121.676 108.15 121.625 105.389C121.619 105.135 121.629 104.881 121.656 104.629L121.66 104.622ZM122.722 100.902L122.36 101.012C121.718 101.215 121.057 101.352 120.387 101.423C119.89 101.444 119.642 101.347 119.639 101.133C119.702 100.917 119.801 100.712 119.932 100.529C120.622 99.5821 120.967 98.7116 120.946 97.9067C120.942 97.4712 120.836 97.0428 120.635 96.6563C120.439 96.2866 120.228 96.1036 119.994 96.1139C119.759 96.1243 119.483 96.3177 119.073 96.7046C117.997 97.7218 117.068 98.8845 116.314 100.159C115.638 101.324 115.31 102.351 115.331 103.24C115.32 103.759 115.481 104.267 115.789 104.684C115.913 104.857 116.078 104.996 116.269 105.088C116.46 105.181 116.671 105.223 116.883 105.213C117.248 105.213 117.917 104.836 118.928 104.131C120.106 103.282 121.229 102.359 122.291 101.368L122.798 100.995L122.722 100.902ZM98.6848 94.7875L98.7607 94.594C99.5643 92.5629 100.261 91.1397 100.858 90.2933C101.182 89.8571 101.59 89.4906 102.058 89.2156C102.889 88.6892 103.837 88.376 104.817 88.3036C105.221 88.2577 105.629 88.3398 105.983 88.5385C106.117 88.627 106.226 88.7485 106.3 88.8912C106.373 89.0339 106.409 89.1932 106.404 89.3538C106.313 89.8951 106.129 90.4165 105.859 90.8944C105.284 92.0612 104.822 93.2804 104.479 94.5353C104.69 94.5464 104.899 94.5695 105.107 94.6044C105.62 94.6174 106.129 94.7035 106.618 94.86C106.738 94.9174 106.838 95.0099 106.904 95.1252C106.971 95.2405 107.001 95.3732 106.99 95.506C106.999 96.0715 106.829 96.6254 106.504 97.088C106.178 97.5775 105.716 97.9615 105.176 98.1934C104.521 98.4235 103.837 98.5607 103.145 98.6011C102.947 99.1679 102.777 99.7443 102.638 100.328C102.534 100.974 102.427 101.865 102.31 103.005C102.242 103.394 102.211 103.789 102.217 104.183C102.249 105.869 103.238 106.669 105.183 106.584H105.359C105.587 106.584 105.704 106.601 105.704 106.667C105.704 106.836 105.497 107.13 105.076 107.555C104.646 107.983 104.172 108.364 103.662 108.691C103.091 109.044 102.481 109.328 101.844 109.538C101.266 109.743 100.663 109.867 100.051 109.907C98.8674 110.017 97.688 109.66 96.7636 108.912C96.339 108.551 95.9999 108.1 95.7708 107.592C95.5418 107.083 95.4284 106.53 95.4391 105.973C95.4525 105.258 95.5509 104.547 95.7323 103.855C95.9358 102.981 96.2669 101.803 96.7084 100.332C96.7808 100.069 96.8533 99.7997 96.9395 99.5095C97.0257 99.2194 97.074 99.0536 97.0844 98.9983C96.701 99.0394 96.3144 98.961 95.9772 98.7738C95.8592 98.6743 95.7664 98.5482 95.7065 98.4059C95.6465 98.2636 95.6211 98.1091 95.6323 97.9551C95.6419 97.5859 95.7264 97.2225 95.8805 96.887C96.0347 96.5515 96.2553 96.2509 96.529 96.0034C97.1111 95.3959 97.8602 94.9751 98.6813 94.7944L98.6848 94.7875ZM89.1857 105.841L89.1133 106.17C89.1111 106.433 89.0904 106.696 89.0512 106.957C89.0216 107.393 88.9605 107.826 88.8684 108.253C88.7985 108.557 88.6657 108.842 88.4786 109.092C88.2678 109.36 88.0296 109.605 87.7681 109.824C86.9995 110.521 86.0217 110.943 84.988 111.023C84.6709 111.067 84.3478 111.032 84.0471 110.922C83.7464 110.812 83.4773 110.629 83.2635 110.391C82.8978 109.935 82.7012 109.189 82.6805 108.139C82.6814 107.096 82.7726 106.056 82.953 105.03C83.1285 103.903 83.3797 102.789 83.705 101.696L83.8464 101.275C83.8648 101.136 83.9019 101 83.9567 100.871C84.2681 99.7392 84.6814 98.6385 85.1916 97.582C85.5375 96.9098 86.0135 96.3133 86.5919 95.8272C87.0794 95.4722 87.6623 95.2723 88.2648 95.2538C89.1708 95.2146 89.7272 95.6499 89.9342 96.5595C90.1169 96.4172 90.2866 96.2588 90.4412 96.0863C90.6909 95.7948 90.972 95.5318 91.2794 95.3021C91.4859 95.1695 91.724 95.0943 91.9692 95.0845C93.0569 95.0362 93.6191 95.9205 93.6559 97.7375C93.6701 98.7157 93.5541 99.6915 93.3109 100.639C93.126 101.455 92.8178 102.238 92.3969 102.96C92.0175 103.565 91.6381 103.876 91.2621 103.893C90.8862 103.91 90.6171 103.254 90.593 101.917C90.5973 101.362 90.5383 100.808 90.4171 100.266C90.3449 99.9259 90.1857 99.6104 89.9549 99.3506C89.5824 99.9655 89.3593 101.347 89.2857 103.496C89.2581 104.739 89.2168 105.524 89.1823 105.841H89.1857ZM74.7681 95.2296C76.6652 95.1467 77.6171 95.2883 77.624 95.6614C77.624 96.0897 77.2067 96.3523 76.3547 96.4075C75.3486 96.5006 74.3715 96.7954 73.4816 97.2746C72.5908 97.7611 71.7969 98.4074 71.1396 99.1814C70.4625 99.964 69.9278 100.86 69.5598 101.827C69.1926 102.8 69.0158 103.835 69.039 104.874C69.0113 105.895 69.3826 106.887 70.0738 107.638C70.4037 107.976 70.8042 108.237 71.2466 108.403C71.689 108.568 72.1624 108.633 72.633 108.594C73.1294 108.564 73.6129 108.424 74.0492 108.185C74.4856 107.947 74.8641 107.615 75.1579 107.213C75.8547 106.38 76.2228 105.321 76.1926 104.235C76.1791 103.339 75.9279 102.463 75.4648 101.696C74.9721 100.889 74.2795 100.222 73.454 99.7617C73.078 99.5303 72.8917 99.3645 72.8917 99.2539C72.8917 99.1434 73.1435 98.8601 73.6609 98.5285C74.2764 98.1503 74.9309 97.8399 75.6132 97.6027C76.1979 97.3749 76.8125 97.2329 77.4378 97.1813C77.999 97.1536 78.5588 97.2577 79.0727 97.4853C79.599 97.724 80.0691 98.0713 80.4524 98.5043C80.8657 98.972 81.1875 99.5134 81.4009 100.1C81.6235 100.717 81.7402 101.368 81.7458 102.024C81.7632 103.195 81.5279 104.356 81.056 105.427C80.619 106.489 79.9509 107.44 79.1003 108.211C77.9598 109.183 76.6691 109.962 75.2786 110.519C73.9186 111.106 72.4664 111.451 70.9878 111.538C69.6528 111.605 68.3153 111.476 67.0178 111.154C65.8923 110.91 64.828 110.44 63.8894 109.772C62.8569 108.957 62.3257 107.764 62.2958 106.194C62.2956 104.867 62.6467 103.564 63.3133 102.418C64.0604 101.084 65.0379 99.8935 66.2003 98.9016C67.4104 97.8302 68.7786 96.9528 70.2566 96.3005C71.6795 95.6654 73.2085 95.3022 74.7647 95.2296H74.7681ZM58.8122 101.631L58.6293 102.321C58.5673 102.56 58.519 102.76 58.4707 102.929C58.4224 103.099 58.3844 103.24 58.3534 103.368C58.3224 103.496 58.2913 103.617 58.2568 103.751C57.4014 107.084 56.7024 109.175 56.1597 110.025C55.8604 110.445 55.4761 110.798 55.0318 111.061C53.4383 112.007 52.1897 112.501 51.2722 112.543C50.6838 112.586 50.1014 112.401 49.6442 112.028C49.4297 111.858 49.2563 111.642 49.1368 111.395C49.0174 111.149 48.955 110.879 48.9544 110.605C48.9337 109.552 49.4441 107.595 50.4858 104.733C50.7997 103.821 51.086 103.023 51.3481 102.349C51.6102 101.675 51.9276 100.909 52.2966 100.059C52.6657 99.209 53.0899 98.2971 53.5694 97.3333L54.5662 95.2952C52.9684 95.5653 51.3559 95.7395 49.7373 95.8169C48.1737 95.8859 47.3827 95.4611 47.3643 94.5422C47.3643 93.9573 47.8587 93.1881 48.8474 92.2347C49.4017 91.6983 50.0388 91.2551 50.7341 90.922C51.4048 90.6468 52.1204 90.498 52.845 90.4833C53.3797 90.4592 54.1143 90.4384 55.0422 90.4246C55.97 90.4108 57.2669 90.4246 58.9225 90.4453H59.4571L59.9745 90.473C60.8955 90.451 61.8169 90.4845 62.7339 90.5732C63.1474 90.6229 63.5421 90.7748 63.8825 91.0153C64.0041 91.1178 64.1027 91.2451 64.1717 91.3886C64.2406 91.5321 64.2784 91.6886 64.2826 91.8478C64.2849 92.2111 64.2121 92.5711 64.0687 92.9048C63.9509 93.2205 63.7565 93.5018 63.503 93.7235C63.1892 94.0379 62.3096 94.3246 60.8472 94.5906C60.7115 94.5975 60.5766 94.6148 60.4436 94.6424L60.0677 94.7253C60.2053 94.818 60.3197 94.9414 60.4017 95.0859C60.4837 95.2303 60.5311 95.3919 60.5402 95.5578C60.4572 96.233 60.288 96.8947 60.0366 97.5267C59.9228 97.7789 59.6675 98.5941 59.2502 99.9828L58.9812 100.96L58.8122 101.631ZM130.379 99.1088C130.726 98.2941 131.191 97.5351 131.759 96.8566C132.996 95.3738 134.521 94.1596 136.243 93.2883C137.972 92.362 139.883 91.8289 141.841 91.7269C142.836 91.6754 143.83 91.8404 144.756 92.2105C145.638 92.5508 146.424 93.1037 147.042 93.8202C147.67 94.5418 148.025 95.4611 148.046 96.4179C148.04 97.4092 147.728 98.3744 147.153 99.1814C146.699 99.8603 146.139 100.461 145.494 100.96L145.57 100.991C145.909 101.151 146.232 101.342 146.535 101.561L146.597 101.603L146.656 101.651C147.055 101.988 147.375 102.408 147.595 102.882C147.814 103.355 147.927 103.872 147.925 104.394C147.915 105.513 147.553 106.601 146.891 107.503C146.099 108.566 145.146 109.499 144.066 110.266C142.846 111.216 141.487 111.973 140.037 112.508C138.608 113.002 137.113 113.28 135.601 113.334C134.222 113.396 132.739 113.261 131.504 112.608C130.932 112.339 130.444 111.92 130.089 111.396C129.735 110.872 129.528 110.262 129.49 109.631C129.048 109.945 128.579 110.219 128.089 110.449C127.248 110.846 126.338 111.074 125.409 111.12C124.513 111.184 123.62 110.956 122.864 110.47C122.024 109.874 121.428 108.995 121.184 107.993C120.784 108.356 120.373 108.708 119.956 109.03C119.039 109.793 118.04 110.453 116.979 110.999C116.088 111.46 115.111 111.733 114.11 111.8C112.49 111.927 110.881 111.451 109.591 110.463C108.622 109.713 107.954 108.639 107.708 107.437C107.506 107.998 107.164 108.497 106.715 108.888C106.21 109.392 105.651 109.839 105.049 110.221C104.379 110.637 103.662 110.971 102.913 111.216C102.206 111.464 101.468 111.613 100.72 111.658C99.17 111.782 97.6321 111.304 96.4256 110.322C95.845 109.827 95.3808 109.21 95.066 108.515C94.7511 107.82 94.5935 107.064 94.6044 106.301C94.6185 105.465 94.7343 104.635 94.9493 103.827C95.2252 102.66 95.5667 101.496 95.9151 100.345L95.7599 100.245C95.707 100.206 95.6552 100.166 95.6047 100.124C95.5449 100.516 95.4667 100.905 95.3701 101.292C95.1489 102.254 94.78 103.176 94.2767 104.024C93.7593 104.853 93.0143 105.586 91.9761 105.634C91.7746 105.643 91.5729 105.619 91.3794 105.562L91.2828 105.53C91.2828 105.786 91.2449 106.038 91.2207 106.284V106.366L91.1621 106.626C91.1525 106.886 91.1295 107.145 91.0931 107.403C91.0576 107.897 90.9861 108.387 90.8793 108.871V108.902C90.7609 109.396 90.5412 109.859 90.2343 110.263C89.9632 110.609 89.6569 110.927 89.3202 111.209H89.2995C88.2845 112.108 87.0017 112.646 85.6503 112.74C85.1099 112.793 84.5646 112.715 84.0604 112.513C83.5562 112.311 83.1078 111.991 82.753 111.579C82.0631 110.715 81.8631 109.506 81.8424 108.442C81.8424 108.377 81.8424 108.308 81.8424 108.242C81.4843 108.732 81.0737 109.182 80.6179 109.582C79.3547 110.66 77.924 111.524 76.3823 112.139C74.8615 112.79 73.2392 113.171 71.5879 113.265C70.114 113.327 68.6387 113.177 67.2075 112.819C65.8822 112.53 64.6306 111.97 63.5306 111.175C62.0371 110.018 61.4094 108.339 61.3714 106.484C61.3691 104.908 61.7819 103.359 62.5683 101.993C63.401 100.512 64.4881 99.1894 65.7795 98.0864C67.1006 96.9263 68.5905 95.9746 70.1979 95.2642C71.7904 94.5559 73.5002 94.1495 75.2406 94.0655C76.0455 94.0103 76.8538 94.03 77.6551 94.1242C78.6312 94.2728 79.5832 94.7909 79.6073 95.9101C79.6093 96.0256 79.6024 96.1411 79.5866 96.2555C79.791 96.3168 79.9915 96.3906 80.1868 96.4766C80.9057 96.7974 81.5479 97.2686 82.07 97.8584C82.5996 98.4516 83.0127 99.1395 83.2876 99.8861L83.3531 100.066C83.6463 99.0756 84.0272 98.1138 84.4914 97.1917C84.9275 96.3485 85.528 95.6015 86.2573 94.9947L86.2884 94.9705L86.3229 94.9463C87.0421 94.4265 87.8992 94.132 88.7856 94.1C89.4815 94.0502 90.1737 94.239 90.7482 94.6355C90.8581 94.5447 90.9733 94.4605 91.0931 94.3833C91.5213 94.1075 92.0158 93.9523 92.5245 93.9342C93.0607 93.9017 93.5951 94.0214 94.0663 94.2797C94.7447 94.6842 95.2394 95.337 95.446 96.1001C95.6371 95.8074 95.8566 95.5343 96.1013 95.2849C96.6917 94.6753 97.4089 94.2036 98.2019 93.9031C98.7431 92.4487 99.4429 91.0586 100.289 89.7579C100.726 89.164 101.277 88.6636 101.91 88.2864C102.944 87.643 104.12 87.2623 105.335 87.1775C106.045 87.1152 106.757 87.2809 107.366 87.6508C107.695 87.8673 107.964 88.1623 108.15 88.509C108.336 88.8558 108.433 89.2434 108.432 89.637C108.432 90.3279 108.039 91.2087 107.742 91.8271C107.446 92.4454 107.201 93.0085 106.97 93.6199C107.255 93.668 107.534 93.7491 107.801 93.8617H107.825C108.188 94.0324 108.495 94.3043 108.708 94.6449C108.921 94.9856 109.031 95.3805 109.025 95.7823C109.038 96.6453 108.781 97.4906 108.291 98.2003C107.809 98.919 107.13 99.4828 106.335 99.8239C105.846 100.02 105.336 100.156 104.814 100.228C104.745 100.466 104.686 100.705 104.624 100.943C104.49 101.779 104.404 102.636 104.317 103.479V103.524V103.568C104.264 103.869 104.239 104.175 104.241 104.48C104.227 104.738 104.294 104.994 104.431 105.213C104.676 105.479 105.393 105.482 105.711 105.468H105.887C106.211 105.431 106.54 105.485 106.836 105.625C107.131 105.765 107.382 105.985 107.56 106.259C107.604 105.165 107.857 104.09 108.305 103.092C108.826 101.856 109.508 100.695 110.333 99.6374C111.828 97.7438 113.661 96.144 115.738 94.9187C117.776 93.6786 120.032 92.8012 122.439 92.6976C124.04 92.6285 125.716 92.7943 127.175 93.5024C128.538 94.1622 129.59 95.2469 129.61 96.8255C129.616 97.1534 129.58 97.4807 129.503 97.7996V97.7996C129.73 97.9477 129.924 98.1399 130.075 98.3649C130.225 98.5898 130.329 98.8428 130.379 99.1088V99.1088Z" fill="#231F20"/>
<path d="M135.808 109.361C136.585 109.282 137.306 108.922 137.837 108.349C138.111 108.105 138.331 107.806 138.484 107.472C138.638 107.138 138.72 106.776 138.726 106.408C138.731 106.192 138.681 105.978 138.581 105.786C138.482 105.594 138.336 105.43 138.157 105.309C137.754 104.992 136.867 104.705 135.488 104.446C133.453 104.042 132.125 103.555 131.5 102.967C131.229 102.768 131.006 102.508 130.851 102.209C130.696 101.909 130.613 101.578 130.607 101.24C130.584 100.013 131.092 98.7588 132.132 97.4784C133.239 96.1492 134.605 95.0597 136.146 94.2762C137.683 93.4546 139.381 92.9827 141.12 92.8945C141.907 92.8527 142.693 92.9824 143.424 93.2745C144.09 93.5255 144.683 93.9386 145.149 94.4766C145.565 94.945 145.8 95.5462 145.815 96.1727C145.799 96.8652 145.573 97.5365 145.166 98.0968C144.716 98.7707 144.139 99.3493 143.466 99.7998C142.893 100.224 142.213 100.48 141.503 100.539C141.186 100.56 140.869 100.508 140.575 100.387C140.478 100.364 140.39 100.315 140.319 100.245C140.248 100.175 140.199 100.087 140.175 99.9897C140.188 99.7601 140.237 99.534 140.32 99.3196C140.566 98.5368 140.695 97.722 140.703 96.9015C140.682 96.2031 140.41 95.5357 139.937 95.0224C139.498 95.2745 139.095 95.5834 138.737 95.9412C138.27 96.416 137.898 96.9751 137.64 97.589C137.375 98.1351 137.235 98.7333 137.23 99.3403C137.224 99.5066 137.252 99.6722 137.311 99.8277C137.37 99.9831 137.46 100.125 137.574 100.245C137.868 100.51 138.224 100.695 138.609 100.784C139.326 100.975 140.054 101.121 140.789 101.219C141.964 101.366 143.121 101.638 144.238 102.031C144.489 102.157 144.729 102.302 144.956 102.467C145.198 102.672 145.391 102.928 145.522 103.217C145.652 103.506 145.717 103.821 145.711 104.138C145.697 104.961 145.425 105.757 144.932 106.415C144.235 107.358 143.392 108.184 142.434 108.861C141.345 109.721 140.128 110.404 138.827 110.885C137.538 111.332 136.189 111.582 134.825 111.627C133.418 111.69 132.301 111.503 131.483 111.068C131.117 110.909 130.804 110.649 130.583 110.316C130.361 109.984 130.24 109.595 130.235 109.196C130.261 108.523 130.535 107.885 131.004 107.403C131.549 106.765 132.215 106.242 132.963 105.862C133.678 105.471 134.471 105.243 135.284 105.195C135.857 105.171 136.146 105.268 136.15 105.479C136.117 105.673 136.038 105.857 135.919 106.014C135.493 106.636 135.254 107.367 135.229 108.121C135.242 108.361 135.302 108.595 135.407 108.81C135.512 109.026 135.659 109.218 135.84 109.375L135.808 109.361ZM121.698 104.643V104.708L121.618 104.646C120.617 105.718 119.546 106.723 118.414 107.655C117.584 108.351 116.679 108.953 115.717 109.451C115.006 109.825 114.227 110.048 113.427 110.108C112.155 110.22 110.887 109.85 109.874 109.071C109.419 108.72 109.051 108.269 108.799 107.751C108.547 107.234 108.418 106.666 108.422 106.09C108.448 105.148 108.662 104.222 109.053 103.365C109.53 102.248 110.145 101.197 110.885 100.235C112.26 98.4922 113.942 97.016 115.848 95.8791C117.918 94.6194 119.915 93.9481 121.839 93.8652C123.467 93.7938 124.81 94.0137 125.868 94.5249C126.927 95.0431 127.468 95.7271 127.486 96.5803C127.459 97.3204 127.198 98.0329 126.741 98.6149C127.43 98.5838 127.862 98.6149 128.041 98.7427C128.22 98.8705 128.317 99.1365 128.324 99.589C128.324 99.5441 128.296 99.7652 128.244 100.249C128.193 101.309 128.179 102.301 128.196 103.223C128.196 103.703 128.22 104.073 128.237 104.318C128.255 104.563 128.286 104.847 128.331 105.164C128.375 105.482 128.413 105.741 128.455 105.931C128.572 106.441 128.748 106.934 128.979 107.403C128.331 107.999 127.6 108.498 126.81 108.885C126.143 109.205 125.42 109.388 124.681 109.424C122.72 109.511 121.714 108.174 121.663 105.413C121.643 105.152 121.641 104.89 121.656 104.629L121.698 104.643ZM122.76 100.922L122.398 101.033C121.756 101.236 121.095 101.373 120.425 101.444C119.928 101.465 119.68 101.368 119.677 101.154C119.741 100.937 119.842 100.733 119.973 100.549C120.663 99.6029 121.008 98.7324 120.987 97.9275C120.984 97.492 120.877 97.0635 120.677 96.677C120.48 96.3074 120.27 96.1243 120.035 96.1347C119.801 96.145 119.525 96.3385 119.114 96.7219C118.039 97.7391 117.11 98.9018 116.355 100.176C115.679 101.342 115.351 102.369 115.372 103.258C115.361 103.776 115.523 104.284 115.831 104.701C115.954 104.874 116.119 105.013 116.31 105.106C116.501 105.198 116.712 105.241 116.924 105.23C117.29 105.23 117.959 104.853 118.97 104.149C120.147 103.299 121.27 102.376 122.332 101.385L122.84 101.012L122.76 100.922ZM98.7228 94.8082L98.7986 94.6113C99.6023 92.5801 100.299 91.157 100.896 90.3106C101.22 89.8744 101.628 89.5079 102.096 89.2329C102.927 88.7065 103.875 88.3933 104.855 88.3209C105.259 88.2752 105.667 88.3573 106.021 88.5558C106.155 88.6443 106.264 88.7658 106.338 88.9085C106.411 89.0512 106.447 89.2105 106.442 89.3711C106.351 89.9124 106.167 90.4337 105.897 90.9117C105.322 92.0784 104.86 93.2976 104.517 94.5526C104.728 94.5638 104.937 94.5868 105.145 94.6217C105.658 94.6348 106.167 94.7209 106.656 94.8773C106.776 94.9348 106.876 95.0272 106.942 95.1425C107.009 95.2578 107.039 95.3905 107.028 95.5233C107.037 96.0888 106.867 96.6427 106.542 97.1054C106.216 97.5948 105.754 97.9788 105.214 98.2108C104.559 98.4408 103.875 98.578 103.183 98.6184C102.985 99.1852 102.815 99.7616 102.676 100.346C102.572 100.992 102.465 101.883 102.348 103.023C102.281 103.412 102.249 103.806 102.255 104.201C102.287 105.886 103.276 106.687 105.221 106.601H105.338H105.397C105.625 106.601 105.742 106.619 105.742 106.684C105.742 106.854 105.535 107.147 105.114 107.572C104.684 108 104.21 108.381 103.7 108.709C103.129 109.061 102.519 109.345 101.882 109.555C101.304 109.76 100.701 109.884 100.089 109.924C98.9054 110.035 97.7259 109.678 96.8016 108.93C96.3678 108.57 96.0201 108.118 95.7843 107.606C95.5485 107.095 95.4305 106.536 95.4391 105.973C95.4523 105.258 95.5508 104.547 95.7323 103.855C95.9358 102.981 96.2669 101.803 96.7084 100.332C96.7809 100.073 96.8533 99.7998 96.9395 99.5096C97.0258 99.2194 97.0741 99.0536 97.0878 98.9983C96.7045 99.0394 96.3178 98.961 95.9807 98.7738C95.8627 98.6743 95.7699 98.5483 95.71 98.406C95.65 98.2637 95.6246 98.1092 95.6357 97.9551C95.6454 97.5859 95.7299 97.2225 95.884 96.887C96.0382 96.5515 96.2588 96.2509 96.5325 96.0034C97.1137 95.3965 97.8615 94.9758 98.6814 94.7944L98.7228 94.8082ZM89.2237 105.862L89.1513 106.19C89.149 106.454 89.1282 106.717 89.0892 106.978C89.0595 107.414 88.9984 107.846 88.9064 108.273C88.8366 108.577 88.7038 108.863 88.5166 109.113C88.3058 109.381 88.0676 109.626 87.8061 109.845C87.0375 110.542 86.0597 110.964 85.026 111.044C84.7116 111.085 84.3919 111.049 84.0944 110.939C83.797 110.829 83.5308 110.648 83.3187 110.412C82.9496 109.956 82.753 109.209 82.7358 108.159C82.7366 107.117 82.8278 106.077 83.0082 105.05C83.1837 103.924 83.4349 102.81 83.7602 101.717L83.9016 101.295C83.92 101.156 83.9571 101.02 84.012 100.891C84.3233 99.76 84.7366 98.6593 85.2468 97.6028C85.5927 96.9306 86.0687 96.3341 86.6471 95.848C87.1346 95.4929 87.7175 95.2931 88.32 95.2745C89.226 95.2354 89.7825 95.6706 89.9894 96.5803C90.1721 96.4379 90.3418 96.2795 90.4964 96.1071C90.7459 95.8154 91.0271 95.5524 91.3346 95.3229C91.5411 95.1902 91.7793 95.1151 92.0244 95.1053C93.1121 95.0569 93.6743 95.9412 93.7111 97.7582C93.7254 98.7365 93.6094 99.7123 93.3662 100.66C93.1812 101.476 92.873 102.259 92.4521 102.981C92.0727 103.586 91.6933 103.897 91.3173 103.914C90.9414 103.931 90.6723 103.275 90.6482 101.938C90.6524 101.383 90.5934 100.829 90.4723 100.287C90.4002 99.9467 90.2409 99.6312 90.0101 99.3714C89.6376 99.9863 89.4134 101.368 89.3375 103.517C89.2582 104.739 89.2168 105.524 89.1823 105.841L89.2237 105.862ZM74.8061 95.2504C76.7031 95.1675 77.6551 95.3091 77.662 95.6822C77.662 96.1105 77.2447 96.373 76.3927 96.4283C75.3866 96.5213 74.4095 96.8162 73.5195 97.2954C72.6288 97.7818 71.8349 98.4282 71.1775 99.2022C70.5004 99.9848 69.9657 100.88 69.5978 101.848C69.2306 102.821 69.0538 103.855 69.077 104.895C69.0497 105.916 69.4209 106.907 70.1117 107.658C70.4421 107.997 70.8431 108.259 71.2862 108.424C71.7292 108.59 72.2033 108.655 72.6745 108.615C73.1708 108.585 73.6543 108.445 74.0906 108.206C74.527 107.967 74.9055 107.635 75.1993 107.234C75.8961 106.401 76.2642 105.342 76.234 104.256C76.2205 103.36 75.9693 102.484 75.5063 101.717C75.0136 100.909 74.3209 100.243 73.4954 99.7825C73.1194 99.551 72.9332 99.3852 72.9332 99.2747C72.9332 99.1642 73.1849 98.8809 73.7023 98.5493C74.3178 98.171 74.9724 97.8606 75.6546 97.6235C76.2393 97.3958 76.8539 97.2538 77.4792 97.2021C78.0404 97.1745 78.6002 97.2786 79.1141 97.5061C79.6405 97.7447 80.1106 98.092 80.4938 98.5251C80.8902 98.9899 81.1978 99.5239 81.4009 100.1C81.6235 100.718 81.7401 101.368 81.7458 102.024C81.7632 103.195 81.5279 104.356 81.056 105.427C80.6191 106.489 79.9509 107.44 79.1003 108.211C77.9599 109.183 76.6691 109.962 75.2786 110.519C73.9186 111.106 72.4665 111.451 70.9878 111.538C69.6529 111.605 68.3153 111.476 67.0178 111.154C65.8923 110.911 64.828 110.44 63.8894 109.772C62.8569 108.957 62.3257 107.764 62.2959 106.194C62.2958 104.867 62.6469 103.564 63.3134 102.418C64.0608 101.085 65.0382 99.896 66.2003 98.9051C67.4102 97.8326 68.7785 96.954 70.2566 96.3005C71.6796 95.6655 73.2085 95.3024 74.7647 95.2296L74.8061 95.2504ZM58.8501 101.651L58.6673 102.342C58.6052 102.581 58.5569 102.781 58.5086 102.954C58.4604 103.126 58.4224 103.264 58.3948 103.392C58.3672 103.52 58.3327 103.641 58.2982 103.776C57.4428 107.108 56.7438 109.199 56.2011 110.049C55.9017 110.469 55.5175 110.823 55.0733 111.085C53.4797 112.032 52.2311 112.526 51.3136 112.567C50.7253 112.61 50.1428 112.426 49.6856 112.052C49.4713 111.882 49.298 111.666 49.1786 111.42C49.0592 111.173 48.9967 110.903 48.9958 110.629C48.9751 109.577 49.4856 107.619 50.5272 104.757C50.8411 103.845 51.1274 103.047 51.3895 102.373C51.6517 101.7 51.969 100.933 52.338 100.083C52.7071 99.2332 53.1314 98.3213 53.6108 97.3575L54.6076 95.3195C53.0098 95.5894 51.3973 95.7636 49.7787 95.8411C48.2151 95.9102 47.4241 95.4853 47.4057 94.5664C47.4057 93.9815 47.9001 93.2123 48.8888 92.2589C49.4431 91.7225 50.0802 91.2793 50.7756 90.9462C51.4462 90.6711 52.1619 90.5223 52.8865 90.5075C53.4211 90.4834 54.1558 90.4626 55.0836 90.4488C56.0114 90.435 57.3083 90.4488 58.9639 90.4695H59.4986L60.0125 90.4972C60.9334 90.4752 61.8549 90.5087 62.7718 90.5973C63.1854 90.647 63.5801 90.799 63.9204 91.0395C64.0421 91.142 64.1407 91.2693 64.2097 91.4128C64.2786 91.5563 64.3164 91.7128 64.3205 91.872C64.3229 92.2354 64.25 92.5953 64.1067 92.929C63.9889 93.2447 63.7945 93.526 63.541 93.7477C63.2271 94.0621 62.3476 94.3488 60.8851 94.6148C60.7495 94.6217 60.6146 94.639 60.4816 94.6666L60.1056 94.7495C60.2433 94.8422 60.3576 94.9656 60.4396 95.1101C60.5216 95.2545 60.569 95.4161 60.5782 95.582C60.4952 96.2572 60.3259 96.9189 60.0746 97.551C59.9608 97.8031 59.7021 98.6184 59.2882 100.007L59.0191 100.985L58.8501 101.651Z" fill="white"/>
<path d="M149.026 129.68L148.164 128.785L148.415 130.271L149.026 129.68ZM147.363 127.953L147.867 127.466L149.526 129.193L149.764 128.965L150.216 129.435L149.978 129.663L150.506 130.208L150.009 130.689L149.481 130.143L148.315 131.269L147.867 130.803L147.363 127.953ZM146.329 131.718L147.287 130.872L147.712 131.352L146.753 132.198L146.329 131.718ZM145.325 132.91L144.549 131.939L144.663 133.442L145.325 132.91ZM143.828 131.048L144.373 130.609L145.863 132.475L146.122 132.267L146.529 132.775L146.27 132.982L146.742 133.576L146.204 134.008L145.732 133.414L144.466 134.426L144.062 133.918L143.828 131.048ZM142.759 134.63C142.628 134.718 142.535 134.853 142.5 135.007C142.482 135.075 142.479 135.146 142.492 135.215C142.504 135.284 142.532 135.35 142.572 135.407C142.612 135.464 142.663 135.513 142.723 135.549C142.782 135.585 142.848 135.609 142.917 135.618C142.996 135.627 143.075 135.62 143.151 135.598C143.226 135.576 143.297 135.539 143.359 135.49C143.491 135.405 143.586 135.273 143.624 135.121C143.639 135.052 143.639 134.981 143.623 134.912C143.608 134.843 143.578 134.779 143.535 134.723C143.495 134.666 143.444 134.617 143.385 134.58C143.325 134.543 143.259 134.519 143.19 134.509C143.112 134.501 143.034 134.509 142.959 134.533C142.884 134.556 142.815 134.594 142.755 134.644L142.759 134.63ZM141.865 133.442C141.821 133.471 141.784 133.509 141.755 133.554C141.727 133.598 141.708 133.648 141.7 133.701C141.692 133.754 141.695 133.809 141.708 133.861C141.722 133.913 141.746 133.962 141.779 134.005C141.81 134.05 141.85 134.089 141.896 134.118C141.942 134.148 141.994 134.168 142.048 134.178C142.101 134.187 142.156 134.186 142.209 134.173C142.262 134.161 142.312 134.138 142.355 134.105C142.4 134.075 142.438 134.036 142.468 133.99C142.497 133.944 142.516 133.893 142.524 133.839C142.531 133.783 142.527 133.727 142.513 133.673C142.498 133.619 142.472 133.569 142.438 133.525C142.408 133.48 142.37 133.441 142.325 133.412C142.279 133.383 142.229 133.364 142.176 133.355C142.119 133.35 142.062 133.357 142.008 133.375C141.954 133.393 141.904 133.421 141.862 133.459L141.865 133.442ZM143.152 133.88C143.343 133.868 143.534 133.905 143.707 133.988C143.879 134.071 144.028 134.197 144.138 134.354C144.262 134.521 144.337 134.72 144.356 134.927C144.376 135.128 144.338 135.331 144.245 135.511C144.128 135.718 143.964 135.894 143.766 136.026C143.574 136.178 143.35 136.284 143.11 136.336C142.915 136.369 142.715 136.342 142.534 136.26C142.34 136.174 142.174 136.037 142.052 135.863C141.941 135.714 141.87 135.539 141.845 135.355C141.821 135.162 141.841 134.966 141.903 134.782C141.758 134.759 141.617 134.71 141.489 134.637C141.37 134.567 141.266 134.473 141.186 134.361C141.076 134.211 141.009 134.034 140.993 133.849C140.976 133.667 141.012 133.483 141.096 133.321C141.188 133.141 141.323 132.987 141.489 132.872C141.648 132.752 141.834 132.673 142.031 132.644C142.214 132.619 142.401 132.646 142.569 132.723C142.739 132.798 142.885 132.918 142.993 133.069C143.068 133.172 143.121 133.289 143.148 133.414C143.173 133.576 143.171 133.74 143.141 133.901L143.152 133.88ZM140.465 136.336C140.413 136.37 140.368 136.414 140.334 136.465C140.3 136.517 140.278 136.576 140.268 136.637C140.246 136.767 140.275 136.902 140.351 137.01C140.386 137.066 140.432 137.115 140.486 137.154C140.539 137.192 140.6 137.22 140.665 137.235C140.723 137.25 140.784 137.253 140.843 137.243C140.903 137.234 140.959 137.212 141.01 137.179C141.063 137.146 141.108 137.101 141.143 137.049C141.178 136.996 141.202 136.937 141.213 136.875C141.226 136.81 141.225 136.742 141.211 136.677C141.196 136.612 141.169 136.55 141.131 136.495C141.097 136.439 141.052 136.39 140.998 136.351C140.945 136.313 140.884 136.285 140.82 136.271C140.756 136.261 140.691 136.265 140.628 136.282C140.566 136.299 140.508 136.329 140.458 136.371L140.465 136.336ZM139.32 134.426L139.982 134.347L140.134 135.756C140.258 135.672 140.398 135.614 140.545 135.587C140.692 135.559 140.843 135.563 140.989 135.597C141.14 135.63 141.283 135.694 141.41 135.783C141.536 135.873 141.643 135.987 141.724 136.119C141.81 136.245 141.869 136.387 141.897 136.537C141.926 136.687 141.923 136.841 141.889 136.989C141.86 137.139 141.801 137.281 141.715 137.407C141.629 137.533 141.518 137.64 141.389 137.722C141.261 137.811 141.115 137.871 140.962 137.9C140.809 137.928 140.651 137.924 140.499 137.887C140.354 137.858 140.215 137.8 140.092 137.716C139.969 137.633 139.863 137.525 139.782 137.4C139.719 137.302 139.67 137.195 139.637 137.083C139.59 136.893 139.559 136.7 139.544 136.506L139.32 134.426ZM138.054 137.922C138.002 137.955 137.957 137.999 137.923 138.051C137.889 138.103 137.867 138.161 137.857 138.223C137.835 138.353 137.864 138.487 137.94 138.596C137.975 138.652 138.021 138.701 138.075 138.739C138.128 138.778 138.189 138.805 138.254 138.82C138.312 138.835 138.373 138.838 138.432 138.828C138.492 138.819 138.548 138.797 138.599 138.765C138.652 138.731 138.697 138.687 138.732 138.634C138.767 138.582 138.791 138.523 138.802 138.461C138.815 138.395 138.814 138.328 138.8 138.262C138.785 138.197 138.758 138.135 138.72 138.081C138.686 138.025 138.641 137.976 138.587 137.937C138.534 137.898 138.473 137.871 138.409 137.856C138.346 137.844 138.281 137.846 138.219 137.861C138.156 137.876 138.098 137.904 138.047 137.943L138.054 137.922ZM136.898 136.026L137.561 135.946L137.712 137.356C137.836 137.271 137.976 137.214 138.124 137.186C138.271 137.159 138.422 137.162 138.568 137.197C138.719 137.23 138.862 137.293 138.988 137.383C139.114 137.472 139.221 137.586 139.303 137.718C139.388 137.844 139.447 137.986 139.476 138.136C139.504 138.286 139.502 138.44 139.468 138.589C139.439 138.738 139.38 138.881 139.294 139.007C139.208 139.133 139.097 139.24 138.968 139.321C138.84 139.41 138.694 139.471 138.541 139.499C138.387 139.528 138.23 139.524 138.078 139.487C137.932 139.457 137.794 139.399 137.67 139.316C137.547 139.232 137.442 139.125 137.361 139C137.297 138.901 137.248 138.794 137.216 138.682C137.169 138.493 137.138 138.3 137.123 138.105L136.898 136.026ZM134.877 138.005C134.777 138.063 134.701 138.155 134.663 138.264C134.623 138.411 134.629 138.566 134.681 138.71C134.766 138.969 134.882 139.217 135.026 139.449C135.171 139.748 135.389 140.006 135.66 140.198C135.737 140.244 135.824 140.268 135.914 140.268C136.003 140.268 136.09 140.244 136.167 140.198C136.24 140.155 136.299 140.093 136.338 140.018C136.377 139.943 136.395 139.858 136.388 139.774C136.351 139.422 136.226 139.086 136.026 138.796C135.874 138.487 135.651 138.219 135.374 138.015C135.297 137.968 135.209 137.942 135.119 137.942C135.028 137.942 134.94 137.968 134.863 138.015L134.877 138.005ZM134.532 137.438C134.739 137.31 134.979 137.246 135.222 137.255C135.477 137.281 135.717 137.383 135.912 137.549C136.203 137.804 136.446 138.109 136.629 138.451C136.841 138.779 136.992 139.143 137.074 139.525C137.125 139.774 137.101 140.032 137.005 140.268C136.898 140.488 136.724 140.669 136.509 140.786C136.303 140.917 136.063 140.983 135.819 140.976C135.566 140.954 135.326 140.856 135.129 140.696C134.84 140.452 134.598 140.157 134.415 139.825C134.121 139.404 133.954 138.906 133.936 138.392C133.942 138.197 133.999 138.007 134.101 137.841C134.204 137.675 134.347 137.539 134.519 137.445L134.532 137.438ZM131.69 139.055L132.628 138.568L134.336 141.86L133.715 142.185L132.314 139.48L131.625 139.825L131.69 139.055ZM130.031 140.482C129.926 140.529 129.842 140.612 129.793 140.717C129.739 140.859 129.729 141.014 129.766 141.162C129.826 141.43 129.919 141.69 130.041 141.936C130.156 142.249 130.347 142.528 130.597 142.748C130.667 142.803 130.751 142.838 130.84 142.849C130.929 142.86 131.019 142.846 131.1 142.81C131.177 142.774 131.242 142.718 131.289 142.647C131.335 142.576 131.361 142.494 131.363 142.409C131.361 142.056 131.271 141.71 131.1 141.401C130.981 141.078 130.786 140.789 130.531 140.558C130.461 140.498 130.374 140.459 130.283 140.447C130.191 140.435 130.098 140.449 130.014 140.489L130.031 140.482ZM129.731 139.881C129.953 139.771 130.204 139.733 130.448 139.77C130.702 139.82 130.935 139.946 131.114 140.133C131.377 140.417 131.588 140.745 131.735 141.103C131.916 141.45 132.033 141.827 132.08 142.216C132.105 142.469 132.054 142.724 131.935 142.948C131.805 143.157 131.614 143.32 131.387 143.414C131.165 143.526 130.915 143.567 130.669 143.532C130.422 143.484 130.196 143.364 130.017 143.186C129.754 142.908 129.545 142.584 129.4 142.23C129.145 141.782 129.026 141.269 129.055 140.755C129.082 140.566 129.157 140.387 129.272 140.235C129.387 140.084 129.539 139.964 129.714 139.888L129.731 139.881ZM128.417 143.069L127.955 141.915L127.63 143.387L128.417 143.069ZM127.524 140.851L128.172 140.592L129.058 142.813L129.365 142.689L129.607 143.294L129.3 143.418L129.583 144.109L128.941 144.364L128.658 143.674L127.154 144.275L126.913 143.674L127.524 140.851ZM125.168 144.033L126.372 143.604L126.585 144.209L125.382 144.637L125.168 144.033ZM123.005 142.651L123.671 142.413L124.492 144.731C124.599 144.988 124.663 145.261 124.681 145.539C124.677 145.704 124.62 145.864 124.519 145.995C124.408 146.137 124.256 146.243 124.085 146.299C123.893 146.366 123.688 146.386 123.486 146.359C123.285 146.331 123.093 146.256 122.926 146.14L123.243 145.522C123.35 145.589 123.466 145.639 123.588 145.67C123.666 145.691 123.748 145.691 123.826 145.67C123.859 145.66 123.888 145.641 123.911 145.616C123.933 145.59 123.948 145.559 123.954 145.525C123.954 145.382 123.923 145.241 123.864 145.111L123.005 142.651Z" fill="#FF006D"/>
</g>
<defs>
<clipPath id="clip0">
<rect width="169" height="147" fill="white"/>
</clipPath>
</defs>
</svg>
